<?xml version="1.0" encoding="UTF-8" standalone="no"?>
<!-- Generator: Adobe Illustrator 19.0.0, SVG Export Plug-In . SVG Version: 6.00 Build 0)  -->

<svg
   version="1.1"
   id="Layer_1"
   x="0px"
   y="0px"
   viewBox="0 0 24 24"
   xml:space="preserve"
   sodipodi:docname="embarkation.svg"
   inkscape:version="1.2.1 (9c6d41e410, 2022-07-14)"
   width="24"
   height="24"
   xmlns:inkscape="http://www.inkscape.org/namespaces/inkscape"
   xmlns:sodipodi="http://sodipodi.sourceforge.net/DTD/sodipodi-0.dtd"
   xmlns="http://www.w3.org/2000/svg"
   xmlns:svg="http://www.w3.org/2000/svg"><defs
   id="defs59" /><sodipodi:namedview
   id="namedview57"
   pagecolor="#ffffff"
   bordercolor="#000000"
   borderopacity="0.25"
   inkscape:showpageshadow="2"
   inkscape:pageopacity="0.0"
   inkscape:pagecheckerboard="true"
   inkscape:deskcolor="#d1d1d1"
   showgrid="false"
   inkscape:zoom="33.916667"
   inkscape:cx="12"
   inkscape:cy="12"
   inkscape:window-width="1920"
   inkscape:window-height="1017"
   inkscape:window-x="-8"
   inkscape:window-y="-8"
   inkscape:window-maximized="1"
   inkscape:current-layer="g3608" />



























<g
   id="g192"
   transform="matrix(0.04687498,0,0,0.07935406,1.0538369e-5,-8.3146389)"><path
     style="fill:#128cb3"
     d="M 300.535,184.659 289.63,149.825 c -8.434,-26.943 -33.068,-45.046 -61.301,-45.046 h -94.666 c -9.384,0 -16.991,7.608 -16.991,16.991 v 67.965 c 0,9.384 7.608,16.991 16.991,16.991 h 150.655 c 5.407,0 10.491,-2.572 13.693,-6.93 3.202,-4.357 4.138,-9.977 2.524,-15.137 z"
     id="path2" /><path
     style="fill:#34b2d9"
     d="m 252.932,109.623 c -7.62,-3.14 -15.941,-4.844 -24.602,-4.844 h -94.666 c -9.384,0 -16.991,7.608 -16.991,16.991 v 67.965 c 0,9.384 7.608,16.991 16.991,16.991 h 119.265 z"
     id="path4" /><path
     style="fill:#212a2d"
     d="M 444.398,237.898 352.023,176.314 C 331.845,162.863 308.361,155.752 284.11,155.752 H 116.673 v 96.283 c 0,9.384 7.608,16.991 16.991,16.991 h 300.808 c 6.917,0 13.4,-3.926 16.116,-10.288 3.257,-7.627 0.561,-16.34 -6.19,-20.84 z"
     id="path6" /><path
     style="fill:#2e373a"
     d="M 252.931,155.752 H 116.673 v 96.283 c 0,9.384 7.608,16.991 16.991,16.991 h 119.265 z"
     id="path8" /><path
     style="fill:#ba2b11"
     d="M 495.009,235.044 H 73.629 c -6.895,0 -13.107,4.167 -15.722,10.548 L 1.269,383.787 c -2.148,5.24 -1.543,11.207 1.613,15.909 3.155,4.703 8.446,7.525 14.109,7.525 h 339.823 c 85.57,0 155.186,-69.616 155.186,-155.186 0,-9.383 -7.607,-16.991 -16.991,-16.991 z"
     id="path10" /><path
     style="fill:#e64122"
     d="m 252.929,235.044 h -179.3 c -6.895,0 -13.107,4.167 -15.722,10.548 L 1.269,383.787 c -2.148,5.24 -1.543,11.207 1.613,15.909 3.155,4.703 8.446,7.525 14.109,7.525 h 235.938 z"
     id="path12" /><path
     style="fill:#a2b3bf"
     d="m 274.572,338.124 h -42.029 c -9.384,0 -16.991,-7.608 -16.991,-16.991 0,-9.384 7.608,-16.991 16.991,-16.991 h 42.029 c 9.384,0 16.991,7.607 16.991,16.991 0,9.384 -7.608,16.991 -16.991,16.991 z"
     id="path14" /><path
     style="fill:#c9d2d9"
     d="m 253.557,338.124 h -21.015 c -9.384,0 -16.991,-7.608 -16.991,-16.991 0,-9.384 7.608,-16.991 16.991,-16.991 h 21.015 z"
     id="path16" /><path
     style="fill:#a2b3bf"
     d="m 382.69,338.124 h -42.03 c -9.384,0 -16.991,-7.608 -16.991,-16.991 0,-9.384 7.608,-16.991 16.991,-16.991 h 42.029 c 9.384,0 16.991,7.607 16.991,16.991 10e-4,9.384 -7.607,16.991 -16.99,16.991 z"
     id="path18" /><path
     style="fill:#c9d2d9"
     d="M 361.675,338.124 H 340.66 c -9.384,0 -16.991,-7.608 -16.991,-16.991 0,-9.384 7.608,-16.991 16.991,-16.991 h 21.015 z"
     id="path20" /><path
     style="fill:#a2b3bf"
     d="m 165.203,338.124 h -42.029 c -9.384,0 -16.991,-7.608 -16.991,-16.991 0,-9.384 7.608,-16.991 16.991,-16.991 h 42.029 c 9.384,0 16.991,7.607 16.991,16.991 0,9.384 -7.607,16.991 -16.991,16.991 z"
     id="path22" /><path
     style="fill:#c9d2d9"
     d="m 144.188,338.124 h -21.015 c -9.384,0 -16.991,-7.608 -16.991,-16.991 0,-9.384 7.608,-16.991 16.991,-16.991 h 21.015 z"
     id="path24" /><g
     id="g26">
</g><g
     id="g28">
</g><g
     id="g30">
</g><g
     id="g32">
</g><g
     id="g34">
</g><g
     id="g36">
</g><g
     id="g38">
</g><g
     id="g40">
</g><g
     id="g42">
</g><g
     id="g44">
</g><g
     id="g46">
</g><g
     id="g48">
</g><g
     id="g50">
</g><g
     id="g52">
</g><g
     id="g54">
</g></g><g
   id="g3608"
   style="opacity:1;fill:#ffc107;fill-opacity:1"
   transform="matrix(-0.13687131,0,0,-0.13687131,15.63125,24.000055)">
	<path
   d="m 51.780876,124.20466 h 22.660079 c 4.610493,0 8.828603,-3.80204 8.828603,-8.60562 V 81.181573 c 0,-4.702524 3.433345,-9.004833 8.043838,-9.004833 h 14.419074 c 7.06288,0 10.9867,-8.10535 6.67148,-13.80741 L 69.142813,3.3397959 c -3.433346,-4.5024164 -10.00575,-4.4023627 -13.341,0 L 13.718808,58.36933 c -4.3162054,5.70206 -0.392382,13.80741 6.6705,13.80741 h 14.518146 c 4.610493,0 8.141934,4.202255 8.141934,9.004833 v 34.417467 c 9.81e-4,4.80358 4.0229,8.60562 8.731488,8.60562 z"
   id="path3606"
   style="fill:#ffc107;fill-opacity:1;stroke-width:0.990698" />
</g></svg>
