<?xml version="1.0" encoding="UTF-8" standalone="no"?>
<!-- Created with Inkscape (http://www.inkscape.org/) -->

<svg
   width="212.38164mm"
   height="119.31454mm"
   viewBox="0 0 212.38164 119.31454"
   version="1.1"
   id="svg1"
   inkscape:export-filename="g13.svg"
   inkscape:export-xdpi="22.43"
   inkscape:export-ydpi="22.43"
   xml:space="preserve"
   xmlns:inkscape="http://www.inkscape.org/namespaces/inkscape"
   xmlns:sodipodi="http://sodipodi.sourceforge.net/DTD/sodipodi-0.dtd"
   xmlns="http://www.w3.org/2000/svg"
   xmlns:svg="http://www.w3.org/2000/svg"><sodipodi:namedview
     id="namedview1"
     pagecolor="#ffffff"
     bordercolor="#000000"
     borderopacity="0.25"
     inkscape:showpageshadow="2"
     inkscape:pageopacity="0.0"
     inkscape:pagecheckerboard="true"
     inkscape:deskcolor="#d1d1d1"
     inkscape:document-units="mm" /><defs
     id="defs1" /><g
     inkscape:label="Layer 1"
     inkscape:groupmode="layer"
     id="layer1"
     transform="translate(-17.001396,-53.343849)"><g
       id="g13"
       inkscape:export-filename="g13.svg"
       inkscape:export-xdpi="22.43"
       inkscape:export-ydpi="22.43"><path
         sodipodi:type="star"
         style="fill:#ffffff;fill-opacity:0.496951;stroke:#a8a8a8;stroke-width:0.0300495;stroke-dasharray:none;stroke-opacity:1"
         id="path6"
         inkscape:flatsided="true"
         sodipodi:sides="6"
         sodipodi:cx="11.343889"
         sodipodi:cy="6.9610233"
         sodipodi:r1="2.5686727"
         sodipodi:r2="2.2245357"
         sodipodi:arg1="1.0471976"
         sodipodi:arg2="1.5707963"
         inkscape:rounded="0"
         inkscape:randomized="0"
         d="m 12.628225,9.1855592 -2.568672,-2e-7 -1.2843364,-2.2245358 1.2843364,-2.2245357 2.568673,1e-7 1.284336,2.2245359 z"
         transform="matrix(8.6909551,0,0,8.9204002,-59.112835,31.05425)" /><path
         sodipodi:type="star"
         style="fill:#ffffff;fill-opacity:0.496951;stroke:#a8a8a8;stroke-width:0.0300495;stroke-dasharray:none;stroke-opacity:1"
         id="path7"
         inkscape:flatsided="true"
         sodipodi:sides="6"
         sodipodi:cx="11.343889"
         sodipodi:cy="6.9610233"
         sodipodi:r1="2.5686727"
         sodipodi:r2="2.2245357"
         sodipodi:arg1="1.0471976"
         sodipodi:arg2="1.5707963"
         inkscape:rounded="0"
         inkscape:randomized="0"
         d="m 12.628225,9.1855592 -2.568672,-2e-7 -1.2843364,-2.2245358 1.2843364,-2.2245357 2.568673,1e-7 1.284336,2.2245359 z"
         transform="matrix(8.6909551,0,0,8.9204002,-59.112837,70.74175)" /><path
         sodipodi:type="star"
         style="fill:#ffffff;fill-opacity:0.496951;stroke:#a8a8a8;stroke-width:0.0300495;stroke-dasharray:none;stroke-opacity:1"
         id="path10"
         inkscape:flatsided="true"
         sodipodi:sides="6"
         sodipodi:cx="11.343889"
         sodipodi:cy="6.9610233"
         sodipodi:r1="2.5686727"
         sodipodi:r2="2.2245357"
         sodipodi:arg1="1.0471976"
         sodipodi:arg2="1.5707963"
         inkscape:rounded="0"
         inkscape:randomized="0"
         d="m 12.628225,9.1855592 -2.568672,-2e-7 -1.2843364,-2.2245358 1.2843364,-2.2245357 2.568673,1e-7 1.284336,2.2245359 z"
         transform="matrix(8.6909551,0,0,8.9204002,-25.62651,90.5855)" /><path
         sodipodi:type="star"
         style="fill:#ffffff;fill-opacity:0.496951;stroke:#a8a8a8;stroke-width:0.0300495;stroke-dasharray:none;stroke-opacity:1"
         id="path11"
         inkscape:flatsided="true"
         sodipodi:sides="6"
         sodipodi:cx="11.343889"
         sodipodi:cy="6.9610233"
         sodipodi:r1="2.5686727"
         sodipodi:r2="2.2245357"
         sodipodi:arg1="1.0471976"
         sodipodi:arg2="1.5707963"
         inkscape:rounded="0"
         inkscape:randomized="0"
         d="m 12.628225,9.1855592 -2.568672,-2e-7 -1.2843364,-2.2245358 1.2843364,-2.2245357 2.568673,1e-7 1.284336,2.2245359 z"
         transform="matrix(8.6909551,0,0,8.9204002,7.8598189,70.741752)" /><path
         sodipodi:type="star"
         style="fill:#ffffff;fill-opacity:0.496951;stroke:#a8a8a8;stroke-width:0.0300495;stroke-dasharray:none;stroke-opacity:1"
         id="path14"
         inkscape:flatsided="true"
         sodipodi:sides="6"
         sodipodi:cx="11.343889"
         sodipodi:cy="6.9610233"
         sodipodi:r1="2.5686727"
         sodipodi:r2="2.2245357"
         sodipodi:arg1="1.0471976"
         sodipodi:arg2="1.5707963"
         inkscape:rounded="0"
         inkscape:randomized="0"
         d="m 12.628225,9.1855592 -2.568672,-2e-7 -1.2843364,-2.2245358 1.2843364,-2.2245357 2.568673,1e-7 1.284336,2.2245359 z"
         transform="matrix(8.6909551,0,0,8.9204002,41.346148,11.226512)" /><path
         sodipodi:type="star"
         style="fill:#ffffff;fill-opacity:0.496951;stroke:#a8a8a8;stroke-width:0.0300495;stroke-dasharray:none;stroke-opacity:1"
         id="path15"
         inkscape:flatsided="true"
         sodipodi:sides="6"
         sodipodi:cx="11.343889"
         sodipodi:cy="6.9610233"
         sodipodi:r1="2.5686727"
         sodipodi:r2="2.2245357"
         sodipodi:arg1="1.0471976"
         sodipodi:arg2="1.5707963"
         inkscape:rounded="0"
         inkscape:randomized="0"
         d="m 12.628225,9.1855592 -2.568672,-2e-7 -1.2843364,-2.2245358 1.2843364,-2.2245357 2.568673,1e-7 1.284336,2.2245359 z"
         transform="matrix(8.6909551,0,0,8.9204002,74.832475,31.070262)" /><path
         sodipodi:type="star"
         style="fill:#ffffff;fill-opacity:0.496951;stroke:#a8a8a8;stroke-width:0.0300495;stroke-dasharray:none;stroke-opacity:1"
         id="path16"
         inkscape:flatsided="true"
         sodipodi:sides="6"
         sodipodi:cx="11.343889"
         sodipodi:cy="6.9610233"
         sodipodi:r1="2.5686727"
         sodipodi:r2="2.2245357"
         sodipodi:arg1="1.0471976"
         sodipodi:arg2="1.5707963"
         inkscape:rounded="0"
         inkscape:randomized="0"
         d="m 12.628225,9.1855592 -2.568672,-2e-7 -1.2843364,-2.2245358 1.2843364,-2.2245357 2.568673,1e-7 1.284336,2.2245359 z"
         transform="matrix(8.6909551,0,0,8.9204002,74.832473,70.757762)" /><path
         sodipodi:type="star"
         style="fill:#ffffff;fill-opacity:0.496951;stroke:#a8a8a8;stroke-width:0.0300495;stroke-dasharray:none;stroke-opacity:1"
         id="path17"
         inkscape:flatsided="true"
         sodipodi:sides="6"
         sodipodi:cx="11.343889"
         sodipodi:cy="6.9610233"
         sodipodi:r1="2.5686727"
         sodipodi:r2="2.2245357"
         sodipodi:arg1="1.0471976"
         sodipodi:arg2="1.5707963"
         inkscape:rounded="0"
         inkscape:randomized="0"
         d="m 12.628225,9.1855592 -2.568672,-2e-7 -1.2843364,-2.2245358 1.2843364,-2.2245357 2.568673,1e-7 1.284336,2.2245359 z"
         transform="matrix(8.6909551,0,0,8.9204002,108.3188,50.914012)" /><g
         id="g19"><path
           sodipodi:type="star"
           style="fill:#ffffff;fill-opacity:0.496951;stroke:#a8a8a8;stroke-width:0.0300495;stroke-dasharray:none;stroke-opacity:1"
           id="path5"
           inkscape:flatsided="true"
           sodipodi:sides="6"
           sodipodi:cx="11.343889"
           sodipodi:cy="6.9610233"
           sodipodi:r1="2.5686727"
           sodipodi:r2="2.2245357"
           sodipodi:arg1="1.0471976"
           sodipodi:arg2="1.5707963"
           inkscape:rounded="0"
           inkscape:randomized="0"
           d="m 12.628225,9.1855592 -2.568672,-2e-7 -1.2843364,-2.2245358 1.2843364,-2.2245357 2.568673,1e-7 1.284336,2.2245359 z"
           transform="matrix(8.6909551,0,0,8.9204002,7.8598189,31.070261)" /><g
           id="g18"
           transform="matrix(0.83784724,0,0,0.83784724,96.394883,83.111208)"><rect
             x="0.47807813"
             y="0.89171147"
             style="fill:#ededed;stroke-width:0.0515138"
             width="23.043842"
             height="22.576147"
             id="rect2" /><path
             d="m 14.012687,3.3381604 h 7.027875 c 0.264046,0 0.478078,-0.2382344 0.478078,-0.5321402 0,-0.2939059 -0.214032,-0.5321403 -0.478078,-0.5321403 h -7.027875 c -0.264047,0 -0.478078,0.2382344 -0.478078,0.5321403 -4.7e-5,0.2939058 0.214031,0.5321402 0.478078,0.5321402 z"
             id="path6-8"
             style="stroke-width:0.0494543" /><path
             d="m 11.239749,3.3381604 h 0.669328 c 0.264047,0 0.478078,-0.2382344 0.478078,-0.5321402 0,-0.2939059 -0.214031,-0.5321403 -0.478078,-0.5321403 h -0.669328 c -0.264047,0 -0.478078,0.2382344 -0.478078,0.5321403 0,0.2939058 0.214031,0.5321402 0.478078,0.5321402 z"
             id="path8"
             style="stroke-width:0.0494543" /><path
             style="fill:#ffbc52;stroke-width:0.0494543"
             d="m 18.741047,14.314881 c 0.928875,0 1.771219,0.410309 2.390437,1.075967 V 5.417458 H 2.8685156 V 20.764479 H 16.228922 c -0.576516,-0.685015 -0.930141,-1.605343 -0.930141,-2.618074 4.7e-5,-2.116143 1.541156,-3.831524 3.442266,-3.831524 z"
             id="path12" /><path
             style="fill:#d1392a;stroke-width:0.0494543"
             d="m 21.131484,15.390796 c -0.619218,-0.66571 -1.461562,-1.075968 -2.390437,-1.075968 -1.901109,0 -3.442219,1.715382 -3.442219,3.831473 0,1.012731 0.353578,1.933058 0.930141,2.618073 0.628078,0.746374 1.520859,1.213399 2.512125,1.213399 1.901109,0 3.442218,-1.715381 3.442218,-3.831472 -4.6e-5,-1.082073 -0.403734,-2.05875 -1.051828,-2.755505 z"
             id="path14-9" /><path
             d="M 21.609563,15.176354 V 5.4174058 c 0,-0.2939059 -0.214032,-0.5321402 -0.478079,-0.5321402 H 2.8685156 c -0.2640469,0 -0.4780781,0.2382343 -0.4780781,0.5321402 V 20.764427 c 0,0.293905 0.2140313,0.53214 0.4780781,0.53214 H 16.032562 c 0.704485,0.750704 1.658532,1.213399 2.708485,1.213399 2.161687,0 3.920297,-1.957529 3.920297,-4.363613 0,-1.146457 -0.399844,-2.190441 -1.051781,-2.969999 z M 17.920687,5.9495461 h 2.732719 v 2.6919545 h -2.732719 z m 0,3.756235 h 2.732719 v 2.8610559 h -2.732719 z m 2.732719,3.9253889 v 0.707972 C 20.08725,13.985443 19.435172,13.78274 18.741047,13.78274 c -0.281344,0 -0.555656,0.03386 -0.82036,0.09684 V 13.63117 Z M 14.298562,5.9495461 h 2.665969 v 2.6919545 h -2.665969 z m 0,3.756235 h 2.665969 v 2.8610559 h -2.665969 z m 0,3.9253889 h 2.665969 v 0.627256 c -0.829687,0.471617 -1.489406,1.26187 -1.847531,2.22566 H 14.298563 Z M 6.0417656,20.232286 H 3.3465938 v -2.683919 h 2.6951718 z m 0,-3.748147 H 3.3465938 v -2.852917 h 2.6951718 z m 0,-3.917302 H 3.3465938 V 9.7057811 h 2.6951718 z m 0,-3.9253364 H 3.3465938 V 5.9495461 H 6.0417656 Z M 9.7014375,20.232286 H 6.9979687 v -2.683919 h 2.7034688 z m 0,-3.748147 H 6.9979687 v -2.852917 h 2.7034688 z m 0,-3.917302 H 6.9979687 V 9.7057811 h 2.7034688 z m 0,-3.9253364 H 6.9979687 V 5.9495461 H 9.7014375 Z M 13.342359,20.232286 h -2.684765 v -2.683919 h 2.684765 z m 0,-3.748147 h -2.684765 v -2.852917 h 2.684765 z m 0,-3.917302 H 10.657594 V 9.7057811 h 2.684765 z m 0,-3.9253364 H 10.657594 V 5.9495461 h 2.684765 z m 0.956203,8.9069184 h 0.559876 c -0.02419,0.195607 -0.03773,0.395023 -0.03773,0.597934 0,0.755087 0.173344,1.465877 0.477844,2.085933 h -1.000031 v -2.683867 z m 4.442485,3.897266 c -1.634438,0 -2.964141,-1.480069 -2.964141,-3.299332 0,-1.819263 1.329703,-3.299332 2.964141,-3.299332 1.634437,0 2.96414,1.480069 2.96414,3.299332 0,1.819263 -1.329703,3.299332 -2.96414,3.299332 z"
             id="path16-8"
             style="stroke-width:0.0494543" /><path
             d="m 18.023906,20.115308 c -0.122344,0 -0.244734,-0.05191 -0.338062,-0.155849 l -0.956157,-1.064332 c -0.186703,-0.207816 -0.186703,-0.544767 0,-0.752635 0.186704,-0.207816 0.489422,-0.207816 0.676172,0 l 0.618094,0.688093 1.861125,-2.071585 c 0.186703,-0.207816 0.489422,-0.207816 0.676172,0 0.186703,0.207816 0.186703,0.544767 0,0.752635 l -2.199188,2.447877 c -0.09342,0.103829 -0.215812,0.155796 -0.338156,0.155796 z"
             id="path18"
             style="stroke-width:0.0494543" /><rect
             style="opacity:1;fill:none;fill-opacity:0.8;stroke:#999999;stroke-width:0.939502;stroke-dasharray:none;stroke-opacity:1"
             id="rect347"
             width="23.060497"
             height="23.060497"
             x="0.46975094"
             y="0.46975094"
             ry="0.82358921" /></g></g><g
         id="g21"><path
           sodipodi:type="star"
           style="fill:#ffffff;fill-opacity:0.496951;stroke:#a8a8a8;stroke-width:0.0300495;stroke-dasharray:none;stroke-opacity:1"
           id="path9"
           inkscape:flatsided="true"
           sodipodi:sides="6"
           sodipodi:cx="11.343889"
           sodipodi:cy="6.9610233"
           sodipodi:r1="2.5686727"
           sodipodi:r2="2.2245357"
           sodipodi:arg1="1.0471976"
           sodipodi:arg2="1.5707963"
           inkscape:rounded="0"
           inkscape:randomized="0"
           d="m 12.628225,9.1855592 -2.568672,-2e-7 -1.2843364,-2.2245358 1.2843364,-2.2245357 2.568673,1e-7 1.284336,2.2245359 z"
           transform="matrix(8.6909551,0,0,8.9204002,-25.62651,50.914009)" /><g
           id="g20"
           transform="matrix(0.83783333,0,0,0.83783333,62.908722,102.95512)"><path
             style="fill:#8cc1ea;stroke-width:0.0536747"
             d="M 16.389643,1.0720312 H 22.25512 C 23.218522,1.0720312 24,1.6680469 24,2.4028125 V 22.669219 C 24,23.403984 23.218522,24 22.25512,24 H 1.7457406 C 0.78147768,24 0,23.403984 0,22.669219 V 2.4028125 C 0,1.6680469 0.78147768,1.0720312 1.7457406,1.0720312 h 5.8645552"
             id="path448" /><polyline
             style="fill:#ffffff"
             points="327.421,78.553 392.043,78.553 392.043,456.317 119.957,456.317 119.957,78.553   184.585,78.553 "
             id="polyline450"
             transform="matrix(0.06146108,0,0,0.046875,-3.7340067,0)" /><path
             style="fill:#f2ca7f;stroke-width:0.0536747"
             d="M 16.389643,4.3835156 H 7.6107874 v -3.0525 C 7.6107874,0.59596875 8.3921422,0 9.3559749,0 h 5.2883571 c 0.963833,0 1.745188,0.59596875 1.745188,1.3310156 v 3.0525 z"
             id="path452" /><rect
             x="9.605691"
             y="2.4776719"
             style="fill:#79b1d6;stroke-width:0.0536747"
             width="4.7884946"
             height="0.85832816"
             id="rect454" /><g
             id="g464"
             transform="matrix(0.06146108,0,0,0.046875,-3.7340067,0)">&#10;	<rect
   x="209.743"
   y="163.222"
   style="fill:#898686"
   width="139.735"
   height="18.311001"
   id="rect456" />&#10;	<rect
   x="209.743"
   y="370.09601"
   style="fill:#898686"
   width="139.735"
   height="18.311001"
   id="rect458" />&#10;	<rect
   x="209.743"
   y="301.138"
   style="fill:#898686"
   width="139.735"
   height="18.311001"
   id="rect460" />&#10;	<rect
   x="209.743"
   y="232.17999"
   style="fill:#898686"
   width="139.735"
   height="18.311001"
   id="rect462" />&#10;</g><g
             id="g474"
             transform="matrix(0.06146108,0,0,0.046875,-3.7340067,0)">&#10;	<circle
   style="fill:#f2ca7f"
   cx="171.66901"
   cy="172.377"
   r="9.1549997"
   id="circle466" />&#10;	<circle
   style="fill:#f2ca7f"
   cx="171.66901"
   cy="241.33501"
   r="9.1549997"
   id="circle468" />&#10;	<circle
   style="fill:#f2ca7f"
   cx="171.66901"
   cy="310.293"
   r="9.1549997"
   id="circle470" />&#10;	<circle
   style="fill:#f2ca7f"
   cx="171.66901"
   cy="379.25101"
   r="9.1549997"
   id="circle472" />&#10;</g></g></g><g
         id="g23"><path
           sodipodi:type="star"
           style="fill:#ffffff;fill-opacity:0.496951;stroke:#a8a8a8;stroke-width:0.0300495;stroke-dasharray:none;stroke-opacity:1"
           id="path13"
           inkscape:flatsided="true"
           sodipodi:sides="6"
           sodipodi:cx="11.343889"
           sodipodi:cy="6.9610233"
           sodipodi:r1="2.5686727"
           sodipodi:r2="2.2245357"
           sodipodi:arg1="1.0471976"
           sodipodi:arg2="1.5707963"
           inkscape:rounded="0"
           inkscape:randomized="0"
           d="m 12.628225,9.1855592 -2.568672,-2e-7 -1.2843364,-2.2245358 1.2843364,-2.2245357 2.568673,1e-7 1.284336,2.2245359 z"
           transform="matrix(8.6909551,0,0,8.9204002,41.346146,50.914011)" /><g
           id="g22"
           transform="matrix(0.83783336,0,0,0.83783336,129.88138,102.95513)"><g
             id="_x32_16_x2C__map_x2C__route_x2C__target_x2C__destination_x2C__position"
             transform="translate(-36.667,-21)">&#10;	<g
   id="g28">&#10;		&#10;	<g
   id="g2440"
   transform="matrix(0.79999997,0,0,0.84837213,7.333401,3.184185)"><g
     id="_x31_612_x2C__Automobile_x2C__bus_x2C__transport_x2C__vehicle"
     transform="matrix(0.06,0,0,0.05657894,36.067,20.434211)">&#10;	<g
   id="g44">&#10;		<path
   style="fill:#ffd24d"
   d="M 260,330 H 70 v 100 c 0,11.05 8.95,20 20,20 h 70 200 70 c 11.05,0 20,-8.95 20,-20 V 330 Z"
   id="path2-9" />&#10;		<path
   style="fill:#3c3b3d"
   d="m 140,370 c 11.05,0 20,8.95 20,20 0,11.05 -8.95,20 -20,20 -11.05,0 -20,-8.95 -20,-20 0,-11.05 8.95,-20 20,-20 z"
   id="path4" />&#10;		<path
   style="fill:#3c3b3d"
   d="m 380,370 c 11.05,0 20,8.95 20,20 0,11.05 -8.95,20 -20,20 -11.05,0 -20,-8.95 -20,-20 0,-11.05 8.95,-20 20,-20 z"
   id="path6-5" />&#10;		<rect
   x="20"
   y="120"
   style="fill:#3c3b3d"
   width="50"
   height="90"
   id="rect8" />&#10;		<rect
   x="450"
   y="120"
   style="fill:#3c3b3d"
   width="50"
   height="90"
   id="rect10" />&#10;		<path
   style="fill:#3c3b3d"
   d="m 160,450 v 40 c 0,5.52 -4.48,10 -10,10 h -50 c -5.52,0 -10,-4.48 -10,-10 v -40 z"
   id="path12-5" />&#10;		<path
   style="fill:#3c3b3d"
   d="m 430,450 v 40 c 0,5.52 -4.48,10 -10,10 h -50 c -5.52,0 -10,-4.48 -10,-10 v -40 z"
   id="path14-8" />&#10;		<path
   style="fill:#ffd24d"
   d="M 450,40 V 90 H 260 70 V 40 C 70,28.95 78.95,20 90,20 h 340 c 11.05,0 20,8.95 20,20 z"
   id="path16-9" />&#10;		<polygon
   style="fill:#b2dbd8"
   points="450,90 450,120 450,210 450,330 260,330 260,90 "
   id="polygon18" />&#10;		<polygon
   style="fill:#d8f2f1"
   points="70,120 70,90 260,90 260,330 70,330 70,210 "
   id="polygon20" />&#10;		<path
   d="m 150,510 h -50 c -11.028,0 -20,-8.972 -20,-20 v -40 c 0,-5.522 4.477,-10 10,-10 5.523,0 10,4.478 10,10 v 40 h 50 v -40 c 0,-5.522 4.477,-10 10,-10 5.523,0 10,4.478 10,10 v 40 c 0,11.028 -8.972,20 -20,20 z"
   id="path22" />&#10;		<path
   d="m 420,510 h -50 c -11.028,0 -20,-8.972 -20,-20 v -40 c 0,-5.522 4.477,-10 10,-10 5.522,0 10,4.478 10,10 v 40 h 50 v -40 c 0,-5.522 4.477,-10 10,-10 5.522,0 10,4.478 10,10 v 40 c 0,11.028 -8.972,20 -20,20 z"
   id="path24" />&#10;		<path
   d="M 430,460 H 90 C 73.458,460 60,446.542 60,430 V 330 c 0,-5.522 4.477,-10 10,-10 5.523,0 10,4.478 10,10 v 100 c 0,5.514 4.486,10 10,10 h 340 c 5.514,0 10,-4.486 10,-10 V 330 c 0,-5.522 4.477,-10 10,-10 5.522,0 10,4.478 10,10 v 100 c 0,16.542 -13.458,30 -30,30 z"
   id="path26" />&#10;		<path
   d="m 450,100 c -5.523,0 -10,-4.477 -10,-10 V 40 c 0,-5.514 -4.486,-10 -10,-10 H 90 c -5.514,0 -10,4.486 -10,10 v 50 c 0,5.523 -4.477,10 -10,10 -5.523,0 -10,-4.477 -10,-10 V 40 C 60,23.458 73.458,10 90,10 h 340 c 16.542,0 30,13.458 30,30 v 50 c 0,5.523 -4.478,10 -10,10 z"
   id="path28" />&#10;		<path
   d="m 70,130 c -5.523,0 -10,-4.477 -10,-10 V 90 c 0,-5.523 4.477,-10 10,-10 h 190 c 5.522,0 10,4.477 10,10 0,5.523 -4.478,10 -10,10 H 80 v 20 c 0,5.523 -4.477,10 -10,10 z"
   id="path30" />&#10;		<path
   d="M 260,340 H 70 c -5.523,0 -10,-4.478 -10,-10 V 210 c 0,-5.523 4.477,-10 10,-10 5.523,0 10,4.477 10,10 v 110 h 180 c 5.522,0 10,4.478 10,10 0,5.522 -4.478,10 -10,10 z"
   id="path32" />&#10;		<path
   d="M 450,340 H 260 c -5.523,0 -10,-4.478 -10,-10 V 90 c 0,-5.523 4.477,-10 10,-10 h 190 c 5.522,0 10,4.477 10,10 v 30 c 0,5.523 -4.478,10 -10,10 -5.523,0 -10,-4.477 -10,-10 V 100 H 270 V 320 H 440 V 210 c 0,-5.523 4.477,-10 10,-10 5.522,0 10,4.477 10,10 v 120 c 0,5.522 -4.478,10 -10,10 z"
   id="path34" />&#10;		<path
   d="m 140,420 c -16.542,0 -30,-13.458 -30,-30 0,-16.542 13.458,-30 30,-30 16.542,0 30,13.458 30,30 0,16.542 -13.458,30 -30,30 z m 0,-40 c -5.514,0 -10,4.486 -10,10 0,5.514 4.486,10 10,10 5.514,0 10,-4.486 10,-10 0,-5.514 -4.486,-10 -10,-10 z"
   id="path36" />&#10;		<path
   d="m 380,420 c -16.542,0 -30,-13.458 -30,-30 0,-16.542 13.458,-30 30,-30 16.542,0 30,13.458 30,30 0,16.542 -13.458,30 -30,30 z m 0,-40 c -5.514,0 -10,4.486 -10,10 0,5.514 4.486,10 10,10 5.514,0 10,-4.486 10,-10 0,-5.514 -4.486,-10 -10,-10 z"
   id="path38" />&#10;		<path
   d="m 500,220 h -50 c -5.523,0 -10,-4.477 -10,-10 v -90 c 0,-5.523 4.477,-10 10,-10 h 50 c 5.522,0 10,4.477 10,10 v 90 c 0,5.523 -4.478,10 -10,10 z m -40,-20 h 30 v -70 h -30 z"
   id="path40" />&#10;		<path
   d="M 70,220 H 20 c -5.523,0 -10,-4.477 -10,-10 v -90 c 0,-5.523 4.477,-10 10,-10 h 50 c 5.523,0 10,4.477 10,10 v 90 c 0,5.523 -4.477,10 -10,10 z M 30,200 H 60 V 130 H 30 Z"
   id="path42" />&#10;	</g>&#10;</g><g
     id="Layer_1-3"
     transform="matrix(0.84863572,0,0,0.80024855,28.180643,20.111038)">&#10;</g><g
     id="g1981"
     transform="translate(9.9741802)" /><g
     id="g1209"
     transform="matrix(1.25,0,0,-1.178728,44.233682,54.671462)" /><g
     id="g1211"
     transform="matrix(1.25,0,0,-1.178728,44.233682,54.671462)" /><g
     id="g1213"
     transform="matrix(1.25,0,0,-1.178728,44.233682,54.671462)" /><g
     id="g1215"
     transform="matrix(1.25,0,0,-1.178728,44.233682,54.671462)" /><g
     id="g1217"
     transform="matrix(1.25,0,0,-1.178728,44.233682,54.671462)" /><g
     id="g1219"
     transform="matrix(1.25,0,0,-1.178728,44.233682,54.671462)" /><g
     id="g8601"
     transform="matrix(0.52708337,0,0,0.78360947,36.667,30.482843)"><rect
       class="cls-2"
       x="3.3258557"
       y="4.7092209"
       width="2.401042"
       height="3.5632434"
       id="rect11"
       style="fill:#9e4830;stroke-width:0.0644461" /><rect
       class="cls-2"
       x="18.857515"
       y="4.7092209"
       width="2.401042"
       height="3.5632434"
       id="rect13"
       style="fill:#9e4830;stroke-width:0.0644461" /><path
       class="cls-3"
       d="M 23.997394,21.988799 C 16.845502,24.680602 7.0754752,24.641382 -2.688e-7,21.893141 0.78153237,19.208512 1.9434109,16.526275 6.7628622,15.232028 7.2639114,15.097151 7.9203989,15.123935 8.3875817,14.9661 c 2.4956943,-0.842743 0.3473478,-1.500388 1.8166293,-2.380437 0.844924,-0.506985 4.048339,-0.225752 4.507706,0.1564 0.419423,0.349628 -0.48455,1.119193 -0.125913,1.53052 0.547941,0.627514 1.509226,0.56438 2.474853,0.888659 4.882843,1.638613 6.199291,3.781342 6.936537,6.828513 -0.265721,0.09757 -0.653883,-2.703282 0,-9.56e-4 z"
       id="path15-5"
       style="fill:#fcc8bc;stroke-width:0.0644461" /><path
       class="cls-3"
       d="m 20.057601,6.2976141 v 2.914207 c 0,2.1738179 -3.140893,2.8697259 -5.430784,3.9755269 a 3.5238438,1.9408915 0 0 1 -4.6944058,0 C 7.6425206,12.081547 4.5016277,11.385639 4.5016277,9.2118211 v -2.914207 c 0,-2.1374677 2.8908024,-3.8808263 6.5127723,-3.9664398 0.09378,-0.00287 2.251682,-0.00383 2.251682,-0.00383 3.74962,0 6.791519,1.7763605 6.791519,3.9702661 z"
       id="path17-4"
       style="fill:#fcc8bc;stroke-width:0.0644461" /><path
       class="cls-4"
       d="m 7.6060491,9.2118211 v -2.914207 c 0,-2.0805514 2.7379689,-3.7880385 6.2253419,-3.9563958 -0.187568,-0.00957 -2.536508,-0.01387 -2.536508,-0.01387 -3.7522249,0 -6.7932553,1.7777953 -6.7932553,3.9697879 V 7.738695 a 1.5569867,0.85756985 0 0 0 0,1.7146614 h 0.015631 C 4.7421661,11.437772 7.7302259,12.123158 9.9315428,13.184 a 3.5151601,1.9361086 0 0 0 3.8998482,0.294147 3.6289166,1.9987643 0 0 1 -0.795427,-0.29319 C 10.746074,12.082026 7.6060491,11.38516 7.6060491,9.2118211 Z"
       id="path19"
       style="fill:#fab3a7;stroke-width:0.0644461" /><ellipse
       class="cls-3"
       cx="20.056732"
       cy="8.5977001"
       id="circle21"
       rx="1.5561184"
       ry="0.85709155"
       style="fill:#fcc8bc;stroke-width:0.0644461" /><path
       class="cls-5"
       d="M 10.249366,7.5875561 A 0.30132425,0.16596583 0 0 1 10.085244,7.560772 c -1.5161731,-0.5390303 -3.3258553,0 -3.3440911,0.00574 A 0.3039745,0.16742556 0 0 1 6.4459073,7.2737993 c 0.086837,-0.026784 2.1422678,-0.6432969 3.9684487,0.00574 a 0.30392936,0.16740069 0 0 1 -0.16499,0.3080168 z"
       id="path23"
       style="fill:#e88032;stroke-width:0.0644461" /><ellipse
       class="cls-6"
       cx="8.3953962"
       cy="8.4939108"
       rx="0.6504088"
       ry="0.51559412"
       id="ellipse25"
       style="fill:#27273d;stroke-width:0.0644461" /><path
       class="cls-5"
       d="m 17.809392,7.5875561 a 0.30132425,0.16596583 0 0 1 -0.16499,-0.026784 c -1.516174,-0.5390303 -3.325856,0 -3.344092,0.00574 A 0.30397444,0.16742552 0 0 1 14.005065,7.2737993 c 0.08684,-0.026784 2.142267,-0.6432969 3.969317,0.00574 a 0.30392936,0.16740069 0 0 1 -0.16499,0.3080168 z"
       id="path27"
       style="fill:#e88032;stroke-width:0.0644461" /><ellipse
       class="cls-6"
       cx="15.955422"
       cy="8.4939108"
       rx="0.6504088"
       ry="0.51559412"
       id="ellipse29"
       style="fill:#27273d;stroke-width:0.0644461" /><rect
       class="cls-4"
       x="11.12034"
       y="9.4547911"
       width="2.2612345"
       height="0.47206995"
       rx="0.39337143"
       id="rect31"
       style="fill:#fab3a7;stroke-width:0.0644461" /><path
       class="cls-6"
       d="M 9.5781164,8.2815515 A 0.30740284,0.16931385 0 0 1 9.4270201,8.2595503 2.0936391,1.1531516 0 0 0 7.3759311,8.255724 0.30403479,0.16745876 0 0 1 7.0511609,7.9725777 c 0.052102,-0.018175 1.2938707,-0.4395464 2.6780518,-0.00383 A 0.30392936,0.16740069 0 0 1 9.5781164,8.2815515 Z"
       id="path33"
       style="fill:#27273d;stroke-width:0.0644461" /><path
       class="cls-6"
       d="m 17.137274,8.2815515 a 0.30219262,0.16644412 0 0 1 -0.150228,-0.022001 2.0945075,1.1536299 0 0 0 -2.051958,-0.00383 0.30403479,0.16745876 0 0 1 -0.32477,-0.2831463 c 0.0521,-0.018175 1.293003,-0.4395464 2.678052,-0.00383 a 0.30392936,0.16740069 0 0 1 -0.151096,0.3128001 z"
       id="path35"
       style="fill:#27273d;stroke-width:0.0644461" /><path
       class="cls-7"
       d="m 4.5459146,8.2566806 a 0.61914752,0.34101913 0 0 0 0,0.6820382 z"
       id="path37"
       style="fill:#f58d89;stroke-width:0.0644461" /><path
       class="cls-4"
       d="m 20.057601,8.9387188 a 0.61914752,0.34101913 0 0 0 0,-0.6820382 z"
       id="path39"
       style="fill:#fab3a7;stroke-width:0.0644461" /><path
       class="cls-8"
       d="m 10.445618,10.799736 a 0.15370142,0.08465692 0 0 0 -0.152833,0.09088 c 0.08684,0.564379 0.928287,1.087148 1.958173,1.087148 v 0 c 1.029886,0 1.87481,-0.522769 1.958173,-1.087148 a 0.15370142,0.08465692 0 0 0 -0.152833,-0.09088 z"
       id="path41"
       style="fill:#ffffff;stroke-width:0.0644461" /><path
       class="cls-9"
       d="M 23.997394,21.988799 C 16.836818,24.683472 7.0798171,24.642817 -2.688e-7,21.893141 0.88747346,18.841666 2.5477961,15.630442 8.3884501,14.865182 c 0,0 3.5429479,1.445863 3.9484769,1.368381 v 0 c 0,0 4.07439,-1.302378 4.689195,-1.1565 5.21456,1.243548 6.326941,4.236673 6.973877,6.910301 -0.268326,0.09996 -0.656488,-2.700891 -0.0026,0.0014 z"
       id="path43"
       style="fill:#c5e8fc;stroke-width:0.0644461" /><path
       class="cls-10"
       d="m 12.337795,16.5808 -2.5825312,1.928934 a 0.46978795,0.25875365 0 0 1 -0.8206093,-0.06457 c 0,0 -2.170924,-3.19544 -2.170924,-3.213615 0.1172299,-0.02535 1.3537883,-0.439068 1.7627903,-0.506507 z"
       id="path45"
       style="fill:#accedd;stroke-width:0.0644461" /><path
       class="cls-6"
       d="m 14.266444,23.941169 a 21.528619,11.857709 0 0 1 -4.4668933,-0.01052 l 1.8088143,-6.090037 -0.652146,-0.228144 -0.347348,-0.121485 1.471887,-1.068495 0.26051,-0.187488 1.702005,1.255983 -1.128881,0.374021 z"
       id="path47"
       style="fill:#27273d;stroke-width:0.0644461" /><rect
       class="cls-11"
       x="14.680656"
       y="18.915321"
       width="4.8168464"
       height="0.7576077"
       rx="0.31261304"
       id="rect49"
       style="fill:#7cc8fb;stroke-width:0.0644461" /><path
       class="cls-8"
       d="M 9.0510161,14.564339 7.7432515,14.907271 A 0.36297849,0.19992426 0 0 0 7.5591571,15.15885 l 1.804472,2.623887 a 0.39684491,0.21857748 0 0 0 0.6894859,0.05309 l 2.170924,-1.600829 c 0,0 -2.092771,-1.266506 -2.7588106,-1.63144 a 0.36297849,0.19992426 0 0 0 -0.4142123,-0.03922 z"
       id="path51"
       style="fill:#ffffff;stroke-width:0.0644461" /><path
       class="cls-8"
       d="m 15.009768,14.60308 c -0.666039,0.364934 -2.75881,1.631439 -2.75881,1.631439 l 2.170924,1.600829 a 0.39684491,0.21857748 0 0 0 0.689486,-0.05309 l 1.803603,-2.623408 a 0.36384686,0.20040255 0 0 0 -0.183226,-0.251579 l -1.308633,-0.342932 a 0.36124175,0.19896768 0 0 0 -0.413344,0.03874 z"
       id="path53"
       style="fill:#ffffff;stroke-width:0.0644461" /><path
       class="cls-10"
       d="M 11.608365,17.84061 9.7995507,23.930647 Q 9.2264267,23.89621 8.6645916,23.844555 L 10.956219,17.612466 Z"
       id="path55"
       style="fill:#accedd;stroke-width:0.0644461" /><ellipse
       class="cls-2"
       cx="5.3934436"
       cy="5.4711328"
       id="circle57"
       rx="2.0684564"
       ry="1.1392813"
       style="fill:#9e4830;stroke-width:0.0644461" /><ellipse
       class="cls-2"
       cx="18.857515"
       cy="5.4711328"
       id="circle59"
       rx="2.0684564"
       ry="1.1392813"
       style="fill:#9e4830;stroke-width:0.0644461" /><path
       class="cls-12"
       d="m 23.462478,3.2695747 c 0,0.4075011 -0.254432,0.7982622 -0.71901,1.1584128 -0.715537,0.5548138 -1.932122,1.0383626 -3.487372,1.401383 -1.899125,0.4443293 -4.30364,0.7097789 -6.918301,0.7097789 -2.6146609,0 -5.0191763,-0.2654496 -6.919169,-0.7097789 C 3.8642445,5.4663501 2.6467903,4.9828013 1.9321221,4.4279875 1.4675444,4.0678369 1.2131121,3.6770758 1.2131121,3.2695747 1.2131121,1.4635604 6.1940801,0 12.337795,0 18.48151,0 23.462478,1.4635604 23.462478,3.2695747 Z"
       id="path61"
       style="opacity:0.845133;fill:#27273d;fill-opacity:1;stroke:#ffffff;stroke-width:0.164;stroke-dasharray:none;stroke-opacity:1" /><path
       class="cls-6"
       d="M 22.743468,4.4279875 H 1.9321221 c 0.6269628,0.4868969 1.6412185,0.9187907 2.929879,1.2626796 a 2.9941384,1.649136 0 0 0 2.9871914,1.5439127 h 8.8573695 a 2.9941384,1.649136 0 0 0 2.98285,-1.5118675 c 1.346841,-0.3486717 2.406252,-0.7925227 3.054056,-1.2947248 z"
       id="path63"
       style="fill:#27273d;stroke-width:0.0644461" /><polygon
       class="cls-13"
       points="243.78,62.77 216.91,62.77 216.91,36.83 190.04,36.83 190.04,63.7 216.91,63.7 216.91,89.64 243.78,89.64 243.78,63.7 270.65,63.7 270.65,89.64 297.52,89.64 297.52,63.7 324.39,63.7 324.39,36.83 297.52,36.83 297.52,62.77 270.65,62.77 270.65,36.83 243.78,36.83 "
       id="polygon65"
       transform="matrix(0.08683696,0,0,0.04782877,-10.113901,-0.58351099)"
       style="fill:#f6c752" /></g></g></g>&#10;</g><g
             id="Layer_1"
             transform="translate(-36.667,-21)">&#10;</g></g></g></g></g></svg>
