<?xml version="1.0" encoding="UTF-8" standalone="no"?>
<!-- Generator: Adobe Illustrator 16.0.0, SVG Export Plug-In . SVG Version: 6.00 Build 0)  -->

<svg
   version="1.1"
   id="Capa_1"
   x="0px"
   y="0px"
   width="22"
   height="70"
   viewBox="0 0 22 70.000002"
   xml:space="preserve"
   sodipodi:docname="right-arrow.svg"
   inkscape:version="1.2.1 (9c6d41e410, 2022-07-14)"
   xmlns:inkscape="http://www.inkscape.org/namespaces/inkscape"
   xmlns:sodipodi="http://sodipodi.sourceforge.net/DTD/sodipodi-0.dtd"
   xmlns="http://www.w3.org/2000/svg"
   xmlns:svg="http://www.w3.org/2000/svg"><defs
   id="defs24047" /><sodipodi:namedview
   id="namedview24045"
   pagecolor="#ffffff"
   bordercolor="#000000"
   borderopacity="0.25"
   inkscape:showpageshadow="2"
   inkscape:pageopacity="0.0"
   inkscape:pagecheckerboard="true"
   inkscape:deskcolor="#d1d1d1"
   showgrid="false"
   inkscape:zoom="11.628571"
   inkscape:cx="9.8464373"
   inkscape:cy="35"
   inkscape:window-width="1920"
   inkscape:window-height="1017"
   inkscape:window-x="-8"
   inkscape:window-y="-8"
   inkscape:window-maximized="1"
   inkscape:current-layer="Capa_1" />
<g
   id="g24012"
   transform="matrix(-0.0854155,0,0,0.15492004,30.297348,-1.1619003e-4)"
   style="fill:#dd5498;fill-opacity:1">
	<path
   d="m 97.141,225.92 c 0,-8.095 3.091,-16.192 9.259,-22.366 L 300.689,9.27 c 12.359,-12.359 32.397,-12.359 44.751,0 12.354,12.354 12.354,32.388 0,44.748 L 173.525,225.92 345.428,397.829 c 12.354,12.354 12.354,32.391 0,44.744 -12.354,12.365 -32.386,12.365 -44.745,0 L 106.393,248.292 c -6.167,-6.177 -9.252,-14.274 -9.252,-22.372 z"
   id="path24010"
   style="fill:#dd5498;fill-opacity:1" />
</g>
<g
   id="g24014"
   transform="translate(-97.141,-7.5e-4)">
</g>
<g
   id="g24016"
   transform="translate(-97.141,-7.5e-4)">
</g>
<g
   id="g24018"
   transform="translate(-97.141,-7.5e-4)">
</g>
<g
   id="g24020"
   transform="translate(-97.141,-7.5e-4)">
</g>
<g
   id="g24022"
   transform="translate(-97.141,-7.5e-4)">
</g>
<g
   id="g24024"
   transform="translate(-97.141,-7.5e-4)">
</g>
<g
   id="g24026"
   transform="translate(-97.141,-7.5e-4)">
</g>
<g
   id="g24028"
   transform="translate(-97.141,-7.5e-4)">
</g>
<g
   id="g24030"
   transform="translate(-97.141,-7.5e-4)">
</g>
<g
   id="g24032"
   transform="translate(-97.141,-7.5e-4)">
</g>
<g
   id="g24034"
   transform="translate(-97.141,-7.5e-4)">
</g>
<g
   id="g24036"
   transform="translate(-97.141,-7.5e-4)">
</g>
<g
   id="g24038"
   transform="translate(-97.141,-7.5e-4)">
</g>
<g
   id="g24040"
   transform="translate(-97.141,-7.5e-4)">
</g>
<g
   id="g24042"
   transform="translate(-97.141,-7.5e-4)">
</g>
</svg>
