<?xml version="1.0" encoding="iso-8859-1"?>
<!-- Generator: Adobe Illustrator 19.0.0, SVG Export Plug-In . SVG Version: 6.00 Build 0)  -->
<svg version="1.1" id="Layer_1" xmlns="http://www.w3.org/2000/svg" xmlns:xlink="http://www.w3.org/1999/xlink" x="0px" y="0px"
	 viewBox="0 0 120 90" style="enable-background:new 0 0 120 90;" xml:space="preserve">
<circle id="XMLID_17_" style="fill:none;stroke:#000000;stroke-miterlimit:10;" cx="59.946" cy="45.07" r="19.66"/>
<line id="XMLID_16_" style="fill:none;stroke:#000000;stroke-width:2;stroke-miterlimit:10;" x1="60.15" y1="21.421" x2="60.15" y2="68.801"/>
<line id="XMLID_15_" style="fill:none;stroke:#000000;stroke-width:2;stroke-miterlimit:10;" x1="36.46" y1="45.111" x2="83.84" y2="45.111"/>
<rect id="XMLID_14_" x="56.242" y="41.122" style="fill:#FFFFFF;stroke:#E20613;stroke-width:2;stroke-miterlimit:10;" width="7.897" height="7.734"/>
<line id="XMLID_13_" style="fill:none;stroke:#000000;stroke-miterlimit:10;" x1="58.196" y1="29.236" x2="62.185" y2="29.236"/>
<line id="XMLID_12_" style="fill:none;stroke:#000000;stroke-miterlimit:10;" x1="58.277" y1="37.133" x2="62.266" y2="37.133"/>
<line id="XMLID_11_" style="fill:none;stroke:#000000;stroke-miterlimit:10;" x1="56.405" y1="33.307" x2="64.057" y2="33.307"/>
<line id="XMLID_10_" style="fill:none;stroke:#000000;stroke-miterlimit:10;" x1="44.234" y1="47.106" x2="44.234" y2="43.117"/>
<line id="XMLID_9_" style="fill:none;stroke:#000000;stroke-miterlimit:10;" x1="52.131" y1="47.024" x2="52.131" y2="43.035"/>
<line id="XMLID_8_" style="fill:none;stroke:#000000;stroke-miterlimit:10;" x1="48.305" y1="48.897" x2="48.305" y2="41.244"/>
<line id="XMLID_7_" style="fill:none;stroke:#000000;stroke-miterlimit:10;" x1="62.226" y1="60.782" x2="58.237" y2="60.782"/>
<line id="XMLID_6_" style="fill:none;stroke:#000000;stroke-miterlimit:10;" x1="62.144" y1="52.886" x2="58.155" y2="52.886"/>
<line id="XMLID_5_" style="fill:none;stroke:#000000;stroke-miterlimit:10;" x1="64.017" y1="56.712" x2="56.364" y2="56.712"/>
<line id="XMLID_4_" style="fill:none;stroke:#000000;stroke-miterlimit:10;" x1="76.187" y1="42.913" x2="76.187" y2="46.902"/>
<line id="XMLID_3_" style="fill:none;stroke:#000000;stroke-miterlimit:10;" x1="68.291" y1="42.994" x2="68.291" y2="46.984"/>
<line id="XMLID_2_" style="fill:none;stroke:#000000;stroke-miterlimit:10;" x1="72.117" y1="41.122" x2="72.117" y2="48.775"/>
<g>
	<g>
		<circle id="XMLID_1_" style="fill:none;stroke:#000000;stroke-miterlimit:10;" cx="60.15" cy="45.111" r="35.15"/>
	</g>
</g>
</svg>
