<?xml version="1.0" encoding="iso-8859-1"?>
<!-- Generator: Adobe Illustrator 19.0.0, SVG Export Plug-In . SVG Version: 6.00 Build 0)  -->
<svg version="1.1" xmlns="http://www.w3.org/2000/svg" xmlns:xlink="http://www.w3.org/1999/xlink" x="0px" y="0px"
	 viewBox="0 0 40 40" style="enable-background:new 0 0 40 40;" xml:space="preserve">
<g id="Background">
	<g id="XMLID_7_">
		<path id="XMLID_17_" style="fill:#D7D6D3;" d="M5,39.5c-2.481,0-4.5-2.019-4.5-4.5V5c0-2.481,2.019-4.5,4.5-4.5h30
			c2.481,0,4.5,2.019,4.5,4.5v30c0,2.481-2.019,4.5-4.5,4.5H5z"/>
		<path id="XMLID_14_" style="fill:#808080;" d="M35,1c2.206,0,4,1.794,4,4v30c0,2.206-1.794,4-4,4H5c-2.206,0-4-1.794-4-4V5
			c0-2.206,1.794-4,4-4H35 M35,0H5C2.239,0,0,2.239,0,5v30c0,2.761,2.239,5,5,5h30c2.761,0,5-2.239,5-5V5C40,2.239,37.761,0,35,0
			L35,0z"/>
	</g>
</g>
<g id="Layer_1">
	<g id="XMLID_331_">
		<path id="XMLID_30_" style="fill:#029FB3;" d="M19.448,34.969c-3.812,0-7.624-0.047-11.435,0.03
			c-1.107,0.023-1.726-0.539-2.113-1.88c-1.548-5.361-1.459-13.134,3.155-18.096c7.092-7.627,15.035-11.24,24.138-9.658
			c1.803,0.313,1.891,0.433,1.569,2.801c-0.201,1.48-0.414,2.957-0.625,4.435c-0.152,1.062-0.593,2.196,0.584,2.812
			c0.176,0.092,0.24,0.785,0.253,1.206c0.176,5.722-0.54,11.229-2.122,16.553c-0.414,1.393-1.024,1.847-2.108,1.826
			C26.979,34.923,23.214,34.969,19.448,34.969z M23.377,15.193c2.605,0,5.211-0.049,7.815,0.024
			c1.023,0.029,1.554-0.427,1.698-1.828c0.153-1.49,0.322-2.994,0.636-4.432c0.36-1.655-0.148-2.158-1.258-2.251
			c-2.414-0.203-4.828-0.365-7.237,0.001c-3.512,0.533-6.773,2.14-9.905,4.298c-1.05,0.723-0.858,1.961-0.789,3.115
			c0.078,1.309,0.885,1.055,1.505,1.06C18.353,15.201,20.865,15.189,23.377,15.193z"/>
	</g>
</g>
</svg>
