<?xml version="1.0" encoding="iso-8859-1"?>
<!-- Generator: Adobe Illustrator 19.0.0, SVG Export Plug-In . SVG Version: 6.00 Build 0)  -->
<svg version="1.1" xmlns="http://www.w3.org/2000/svg" xmlns:xlink="http://www.w3.org/1999/xlink" x="0px" y="0px"
	 viewBox="0 0 40 40" style="enable-background:new 0 0 40 40;" xml:space="preserve">
<g id="Background">
	<g id="XMLID_7_">
		<path id="XMLID_23_" style="fill:#D7D6D3;" d="M5,39.5c-2.481,0-4.5-2.019-4.5-4.5V5c0-2.481,2.019-4.5,4.5-4.5h30
			c2.481,0,4.5,2.019,4.5,4.5v30c0,2.481-2.019,4.5-4.5,4.5H5z"/>
		<path id="XMLID_20_" style="fill:#808080;" d="M35,1c2.206,0,4,1.794,4,4v30c0,2.206-1.794,4-4,4H5c-2.206,0-4-1.794-4-4V5
			c0-2.206,1.794-4,4-4H35 M35,0H5C2.239,0,0,2.239,0,5v30c0,2.761,2.239,5,5,5h30c2.761,0,5-2.239,5-5V5C40,2.239,37.761,0,35,0
			L35,0z"/>
	</g>
</g>
<g id="Layer_1">
	<g id="XMLID_33_">
		<path id="XMLID_334_" style="fill:#029FB3;" d="M15.439,32.546l2.206-2.206c0.164-0.164,0.164-0.432,0-0.596
			c-2.02-2.02,0.434-5.213,1.913-6.692l5.406-5.406c0.72-0.72,0.72-1.889,0-2.609c-0.72-0.72-1.889-0.72-2.609,0l-5.406,5.406
			c-1.479,1.479-4.672,3.933-6.692,1.913c-0.164-0.164-0.432-0.164-0.596,0l-2.206,2.206l0.414,0.414L7.72,25.123l-0.414-0.414
			l-2.183,2.183c-0.164,0.164-0.164,0.432,0,0.596l0.883,0.883c-0.167,1.484,0.318,3.028,1.456,4.166
			c1.138,1.138,2.682,1.623,4.166,1.456l0.883,0.883c0.164,0.164,0.432,0.164,0.596,0l2.183-2.183l-0.413-0.413l0.148-0.148
			L15.439,32.546z M9.564,30.436c-0.994-0.994-0.994-2.606,0-3.599c0.994-0.994,2.605-0.994,3.599,0
			c0.994,0.994,0.994,2.605,0,3.599C12.17,31.43,10.558,31.43,9.564,30.436z"/>
		<path id="XMLID_330_" style="fill:#F16522;" d="M34.915,13.929l-8.844-8.844c-0.113-0.113-0.298-0.113-0.411,0l-0.823,0.823
			c-0.113,0.113-0.113,0.298,0,0.411l8.844,8.844c0.113,0.113,0.298,0.113,0.411,0l0.823-0.823
			C35.028,14.227,35.028,14.042,34.915,13.929z M32.036,16.808l-8.844-8.844c-0.113-0.113-0.298-0.113-0.411,0l-5.759,5.759
			c-0.113,0.113-0.113,0.298,0,0.411l8.844,8.844c0.113,0.113,0.298,0.113,0.411,0l5.759-5.759
			C32.149,17.107,32.149,16.922,32.036,16.808z M33.27,15.574L24.426,6.73c-0.113-0.113-0.298-0.113-0.411,0l-0.411,0.411
			c-0.113,0.113-0.113,0.298,0,0.411l8.844,8.844c0.113,0.113,0.298,0.113,0.411,0l0.411-0.411
			C33.383,15.873,33.383,15.687,33.27,15.574z"/>
		<circle id="XMLID_2_" style="fill:#00BDD6;" cx="23.652" cy="16.348" r="1.708"/>
	</g>
</g>
</svg>
