<?xml version="1.0" encoding="iso-8859-1"?>
<!-- Generator: Adobe Illustrator 19.0.0, SVG Export Plug-In . SVG Version: 6.00 Build 0)  -->
<svg version="1.1" xmlns="http://www.w3.org/2000/svg" xmlns:xlink="http://www.w3.org/1999/xlink" x="0px" y="0px"
	 viewBox="0 0 40 40" style="enable-background:new 0 0 40 40;" xml:space="preserve">
<g id="Background">
	<g id="XMLID_1_">
		<path id="XMLID_17_" style="fill:#D7D6D3;" d="M5,39.5c-2.481,0-4.5-2.019-4.5-4.5V5c0-2.481,2.019-4.5,4.5-4.5h30
			c2.481,0,4.5,2.019,4.5,4.5v30c0,2.481-2.019,4.5-4.5,4.5H5z"/>
		<path id="XMLID_14_" style="fill:#808080;" d="M35,1c2.206,0,4,1.794,4,4v30c0,2.206-1.794,4-4,4H5c-2.206,0-4-1.794-4-4V5
			c0-2.206,1.794-4,4-4H35 M35,0H5C2.239,0,0,2.239,0,5v30c0,2.761,2.239,5,5,5h30c2.761,0,5-2.239,5-5V5C40,2.239,37.761,0,35,0
			L35,0z"/>
	</g>
</g>
<g id="Layer_1">
	<g id="XMLID_34_">
		<rect id="XMLID_273_" x="8.142" y="14.098" style="fill:#F16522;" width="15.049" height="7.844"/>
		<path id="XMLID_95_" style="fill:#029FB3;" d="M24.866,35c0.811,0,1.468-0.59,1.468-1.318c0-0.728-0.657-1.318-1.468-1.318h-0.633
			v-11.77h0.757c0.94,0,1.706,0.686,1.706,1.53v4.187c0,2.055,1.863,3.726,4.153,3.726c2.29,0,4.152-1.671,4.152-3.726V11.867
			c0-0.685-0.339-1.328-0.913-1.766c-0.065-0.05-0.132-0.099-0.203-0.143L29.985,7.54c-0.363-0.225-0.813-0.249-1.19-0.1L27.9,6.866
			l-0.406-0.26c-0.012-0.007-0.024-0.012-0.036-0.018c-0.271-0.15-0.629-0.091-0.817,0.146c-0.148,0.185-0.148,0.425-0.022,0.608
			c0.041,0.06,0.096,0.114,0.165,0.158l1.29,0.827c-0.046,0.387,0.139,0.783,0.521,1.02l0.91,0.564v1.921
			c0,0.965,0.875,1.75,1.95,1.75h1.098v12.729c0,0.844-0.765,1.53-1.705,1.53c-0.94,0-1.706-0.686-1.706-1.53v-4.187
			c0-2.054-1.863-3.726-4.153-3.726h-0.757v-4.163c0.464-0.374,0.758-0.915,0.758-1.519V7.043c0-0.384-0.12-0.742-0.326-1.049
			c-0.193-0.288-0.461-0.529-0.782-0.702c-0.051-0.027-0.102-0.053-0.155-0.077C23.421,5.079,23.078,5,22.713,5h-4.13H8.621
			C7.364,5,6.344,5.915,6.344,7.043v5.674c0,0.604,0.294,1.145,0.758,1.519v18.129H6.469C5.657,32.365,5,32.955,5,33.682
			c0,0.249,0.081,0.479,0.215,0.677c0.124,0.183,0.294,0.336,0.498,0.447C5.934,34.927,6.191,35,6.469,35H24.866z M31.455,12.528
			c-0.427,0-0.775-0.312-0.775-0.696V10.64l1.813,1.124c0.037,0.023,0.06,0.062,0.06,0.103v0.661H31.455z M22.645,16.383H8.689
			v-0.879h13.955V16.383z M8.647,8.151c0-0.797,0.72-1.443,1.608-1.443H21.08c0.888,0,1.608,0.646,1.608,1.443v3.36
			c0,0.796-0.72,1.442-1.608,1.442H10.254c-0.888,0-1.608-0.646-1.608-1.442V8.151z"/>
	</g>
</g>
</svg>
