<?xml version="1.0" encoding="iso-8859-1"?>
<!-- Generator: Adobe Illustrator 19.0.0, SVG Export Plug-In . SVG Version: 6.00 Build 0)  -->
<svg version="1.1" xmlns="http://www.w3.org/2000/svg" xmlns:xlink="http://www.w3.org/1999/xlink" x="0px" y="0px"
	 viewBox="0 0 40 40" style="enable-background:new 0 0 40 40;" xml:space="preserve">
<g id="Background">
	<g id="XMLID_1_">
		<path id="XMLID_17_" style="fill:#D7D6D3;" d="M5,39.5c-2.481,0-4.5-2.019-4.5-4.5V5c0-2.481,2.019-4.5,4.5-4.5h30
			c2.481,0,4.5,2.019,4.5,4.5v30c0,2.481-2.019,4.5-4.5,4.5H5z"/>
		<path id="XMLID_14_" style="fill:#808080;" d="M35,1c2.206,0,4,1.794,4,4v30c0,2.206-1.794,4-4,4H5c-2.206,0-4-1.794-4-4V5
			c0-2.206,1.794-4,4-4H35 M35,0H5C2.239,0,0,2.239,0,5v30c0,2.761,2.239,5,5,5h30c2.761,0,5-2.239,5-5V5C40,2.239,37.761,0,35,0
			L35,0z"/>
	</g>
</g>
<g id="Layer_1">
	<g id="XMLID_35_">
		<g id="XMLID_104_">
			<polygon id="XMLID_189_" style="fill:#00BDD6;stroke:#029FB3;stroke-miterlimit:10;" points="15.446,17.558 20.781,26.816 
				21.794,26.487 16.295,17.31 			"/>
			<polygon id="XMLID_188_" style="fill:#00BDD6;stroke:#029FB3;stroke-miterlimit:10;" points="17.709,16.896 23.014,26.091 
				23.679,25.875 18.39,16.697 			"/>
			<polygon id="XMLID_187_" style="fill:#00BDD6;stroke:#029FB3;stroke-miterlimit:10;" points="17.328,14.854 16.657,15.072 
				15.232,15.535 14.43,15.795 15.446,17.558 16.295,17.31 17.709,16.896 18.39,16.697 			"/>
			<polygon id="XMLID_186_" style="fill:#00BDD6;stroke:#029FB3;stroke-miterlimit:10;" points="16.295,17.31 21.794,26.487 
				23.014,26.091 17.709,16.896 			"/>
		</g>
		<path id="XMLID_185_" style="fill:#029FB3;" d="M32.612,31.224c0,0,1.184-2.133-1.184-3.585c0,0,1.026-1.689-1.066-3.022
			c0,0-0.316-2.755-4.696-1.363c-4.381,1.392-8.682,2.755-10.024,3.259c-0.49,0.184-0.796,0.495-0.986,0.815
			c-0.331,0.556-0.316,1.141-0.316,1.141s-1.074,0.236-1.352,1.06c-0.091,0.27-0.097,0.604,0.049,1.014c0,0-1.033,0.176-1.291,0.794
			c-0.109,0.262-0.079,0.602,0.225,1.043c0,0-2.381,0.175-2.513,2.621h25.521C34.981,35,35.375,32.557,32.612,31.224z"/>
		<g id="XMLID_103_">
			<path id="XMLID_184_" style="fill:#00BDD6;" d="M14.656,27.328c-0.331,0.556-0.316,1.141-0.316,1.141l5.703-1.437L14.656,27.328z
				"/>
			<path id="XMLID_183_" style="fill:#00BDD6;" d="M12.988,29.529c-0.091,0.27-0.097,0.604,0.049,1.014l9.689-1.733L12.988,29.529z"
				/>
			<path id="XMLID_182_" style="fill:#00BDD6;" d="M11.747,31.336c-0.109,0.262-0.079,0.602,0.225,1.043l12.688-0.874L11.747,31.336
				z"/>
		</g>
		<g id="XMLID_102_">
			<path id="XMLID_181_" style="fill:#F16522;" d="M11.735,11.848C8.46,10.752,6.487,9.212,6.487,9.212
				C6.401,8.17,6.575,7.313,6.801,6.677C5.752,7.539,5.113,8.591,5,9.479c0,0,0.947,1.501,3.736,2.627
				c2.789,1.126,4.131,3.95,4.131,3.95s0.912,1.315,2.243,0.906C13.663,14.438,15.011,12.945,11.735,11.848z"/>
			<path id="XMLID_180_" style="fill:#F16522;" d="M18.287,13.409c0,0-0.105-0.829,0.71-1.876c0.816-1.047,0.5-4.602-4.736-6.142
				c-0.939-0.276-1.829-0.394-2.66-0.39c1.884,0.481,4.75,1.575,5.59,3.886c1.284,3.535-0.326,3.081,0.187,4.948
				c0,0,0.755,0.58,0.653,2.23C18.032,16.064,19.681,15.601,18.287,13.409z"/>
			<path id="XMLID_179_" style="fill:#F16522;" d="M17.379,13.833c-0.513-1.866,1.097-1.413-0.187-4.948
				c-0.84-2.311-3.706-3.405-5.59-3.886C9.607,5.01,7.955,5.727,6.801,6.677c-0.225,0.637-0.4,1.494-0.314,2.535
				c0,0,1.973,1.54,5.249,2.637c3.276,1.096,1.927,2.589,3.374,5.113l2.922-0.898C18.134,14.413,17.379,13.833,17.379,13.833z"/>
		</g>
	</g>
</g>
</svg>
