<?xml version="1.0" encoding="iso-8859-1"?>
<!-- Generator: Adobe Illustrator 19.0.0, SVG Export Plug-In . SVG Version: 6.00 Build 0)  -->
<svg version="1.1" xmlns="http://www.w3.org/2000/svg" xmlns:xlink="http://www.w3.org/1999/xlink" x="0px" y="0px"
	 viewBox="0 0 40 40" style="enable-background:new 0 0 40 40;" xml:space="preserve">
<g id="Background">
	<g id="XMLID_1_">
		<path id="XMLID_17_" style="fill-rule:evenodd;clip-rule:evenodd;fill:#D7D6D3;" d="M5,39.5c-2.481,0-4.5-2.019-4.5-4.5V5
			c0-2.481,2.019-4.5,4.5-4.5h30c2.481,0,4.5,2.019,4.5,4.5v30c0,2.481-2.019,4.5-4.5,4.5H5z"/>
		<path id="XMLID_14_" style="fill:#666666;" d="M35,1c2.206,0,4,1.794,4,4v30c0,2.206-1.794,4-4,4H5c-2.206,0-4-1.794-4-4V5
			c0-2.206,1.794-4,4-4H35 M35,0H5C2.239,0,0,2.239,0,5v30c0,2.761,2.239,5,5,5h30c2.761,0,5-2.239,5-5V5C40,2.239,37.761,0,35,0
			L35,0z"/>
	</g>
</g>
<g id="Layer_1_1_">
	<g id="XMLID_332_">
		<g id="XMLID_68_">
			<path id="XMLID_329_" style="fill:#00BDD6;stroke:#00BDD6;stroke-miterlimit:10;" d="M6.88,29.954
				c-3.958-6.272-1.281-15.786,5.979-21.25c7.26-5.463,16.353-4.807,20.311,1.464c3.959,6.273,1.283,15.786-5.978,21.251
				c-4.462,3.358-9.561,4.116-13.848,3.254c-3.059-0.614,2.449-5.597,2.361-7.339c-0.034-0.664-0.557-1.406-1.52-1.168
				C12.393,26.609,8.313,32.224,6.88,29.954z"/>
			<path id="XMLID_328_" style="fill:#00BDD6;stroke:#00BDD6;stroke-miterlimit:10;" d="M6.812,29.846
				c-3.92-6.213-1.27-15.637,5.922-21.049c7.191-5.411,16.199-4.762,20.119,1.452c3.92,6.212,1.269,15.636-5.922,21.047
				c-4.421,3.328-9.471,4.077-13.717,3.225c-3.031-0.609,2.425-5.543,2.339-7.27c-0.033-0.658-0.552-1.393-1.506-1.157
				C12.272,26.533,8.232,32.096,6.812,29.846z"/>
			<path id="XMLID_327_" style="fill:#00BDD6;stroke:#00BDD6;stroke-miterlimit:10;" d="M6.945,29.812
				c-3.904-6.188-1.263-15.573,5.899-20.963c7.161-5.39,16.134-4.743,20.037,1.445c3.905,6.188,1.264,15.574-5.897,20.963
				c-4.403,3.313-9.433,4.061-13.663,3.211c-3.018-0.607,2.415-5.52,2.329-7.241c-0.033-0.656-0.549-1.387-1.499-1.152
				C12.384,26.512,8.361,32.052,6.945,29.812z"/>
			<path id="XMLID_326_" style="fill:#00BDD6;stroke:#00BDD6;stroke-miterlimit:10;" d="M7.07,29.718
				C3.166,23.53,5.806,14.145,12.968,8.755c7.163-5.39,16.132-4.742,20.037,1.445c3.905,6.187,1.265,15.574-5.898,20.963
				c-4.401,3.313-9.432,4.061-13.662,3.212c-3.017-0.606,2.416-5.521,2.329-7.24c-0.033-0.657-0.547-1.388-1.498-1.154
				C12.509,26.419,8.484,31.959,7.07,29.718z"/>
			<g id="XMLID_69_" style="opacity:0.65;">
				<g id="XMLID_70_">
					<defs>
						<path id="XMLID_71_" d="M7.07,29.718C3.166,23.53,5.806,14.145,12.968,8.755c7.163-5.39,16.132-4.742,20.037,1.445
							c3.905,6.187,1.265,15.574-5.898,20.963c-4.401,3.313-9.432,4.061-13.662,3.212c-3.017-0.606,2.416-5.521,2.329-7.24
							c-0.033-0.657-0.547-1.388-1.498-1.154C12.509,26.419,8.484,31.959,7.07,29.718z"/>
					</defs>
					<use xlink:href="#XMLID_71_"  style="overflow:visible;fill:#00BDD6;"/>
					<clipPath id="XMLID_3_">
						<use xlink:href="#XMLID_71_"  style="overflow:visible;"/>
					</clipPath>
					<polygon id="XMLID_325_" style="clip-path:url(#XMLID_3_);fill:#00BDD6;stroke:#00BDD6;stroke-miterlimit:10;" points="
						0.313,7.595 34.048,0.394 39.506,30.889 5.772,38.091 					"/>
					<path id="XMLID_324_" style="clip-path:url(#XMLID_3_);fill:#00BDD6;stroke:#00BDD6;stroke-miterlimit:10;" d="M33.134,9.103
						c4.573,6.527,2.467,16.676-4.705,22.669c-7.172,5.993-16.692,5.56-21.265-0.967c-4.574-6.527-2.467-16.676,4.705-22.67
						C19.039,2.143,28.56,2.576,33.134,9.103z"/>
					<path id="XMLID_323_" style="clip-path:url(#XMLID_3_);fill:#00BDD6;stroke:#00BDD6;stroke-miterlimit:10;" d="M33.108,9.123
						c4.565,6.515,2.462,16.644-4.696,22.625c-7.157,5.98-16.66,5.549-21.224-0.965c-4.564-6.514-2.462-16.644,4.695-22.624
						C19.042,2.178,28.544,2.61,33.108,9.123z"/>
					<path id="XMLID_322_" style="clip-path:url(#XMLID_3_);fill:#00BDD6;stroke:#00BDD6;stroke-miterlimit:10;" d="M33.082,9.146
						c4.556,6.501,2.457,16.61-4.686,22.58c-7.143,5.969-16.627,5.537-21.182-0.963C2.659,24.26,4.757,14.151,11.9,8.182
						C19.044,2.213,28.527,2.644,33.082,9.146z"/>
					<path id="XMLID_321_" style="clip-path:url(#XMLID_3_);fill:#00BDD6;stroke:#00BDD6;stroke-miterlimit:10;" d="M33.057,9.166
						c4.546,6.489,2.452,16.578-4.677,22.535c-7.128,5.958-16.594,5.527-21.14-0.962c-4.546-6.488-2.452-16.578,4.677-22.534
						C19.046,2.248,28.511,2.679,33.057,9.166z"/>
					<path id="XMLID_320_" style="clip-path:url(#XMLID_3_);fill:#00BDD6;stroke:#00BDD6;stroke-miterlimit:10;" d="M33.031,9.189
						c4.538,6.475,2.448,16.544-4.668,22.489c-7.115,5.946-16.56,5.516-21.098-0.959c-4.538-6.475-2.447-16.544,4.667-22.49
						C19.049,2.283,28.495,2.713,33.031,9.189z"/>
					<path id="XMLID_319_" style="clip-path:url(#XMLID_3_);fill:#00BDD6;stroke:#00BDD6;stroke-miterlimit:10;" d="M33.005,9.21
						c4.529,6.461,2.443,16.511-4.658,22.445c-7.101,5.934-16.528,5.506-21.056-0.957C2.763,24.235,4.849,14.186,11.95,8.252
						C19.05,2.318,28.478,2.747,33.005,9.21z"/>
					<path id="XMLID_318_" style="clip-path:url(#XMLID_3_);fill:#00BDD6;stroke:#00BDD6;stroke-miterlimit:10;" d="M32.98,9.231
						c4.519,6.449,2.437,16.479-4.649,22.401c-7.087,5.922-16.496,5.494-21.014-0.956c-4.519-6.449-2.438-16.479,4.65-22.4
						C19.052,2.353,28.461,2.781,32.98,9.231z"/>
					<path id="XMLID_317_" style="clip-path:url(#XMLID_3_);fill:#00BDD6;stroke:#00BDD6;stroke-miterlimit:10;" d="M32.955,9.252
						c4.51,6.437,2.433,16.446-4.641,22.355c-7.072,5.911-16.461,5.484-20.971-0.953C2.832,24.217,4.91,14.209,11.982,8.298
						C19.055,2.389,28.445,2.816,32.955,9.252z"/>
					<path id="XMLID_316_" style="clip-path:url(#XMLID_3_);fill:#00BDD6;stroke:#00BDD6;stroke-miterlimit:10;" d="M32.929,9.274
						c4.501,6.424,2.429,16.413-4.631,22.311c-7.059,5.898-16.429,5.472-20.93-0.952C2.867,24.209,4.941,14.22,11.999,8.322
						S28.428,2.849,32.929,9.274z"/>
					<path id="XMLID_315_" style="clip-path:url(#XMLID_3_);fill:#00BDD6;stroke:#00BDD6;stroke-miterlimit:10;" d="M32.903,9.296
						c4.492,6.41,2.423,16.379-4.62,22.266c-7.045,5.887-16.396,5.461-20.889-0.95C2.901,24.2,4.971,14.232,12.015,8.345
						C19.059,2.459,28.411,2.884,32.903,9.296z"/>
					<path id="XMLID_314_" style="clip-path:url(#XMLID_3_);fill:#00BDD6;stroke:#00BDD6;stroke-miterlimit:10;" d="M32.878,9.316
						c4.483,6.399,2.417,16.347-4.612,22.223c-7.031,5.874-16.364,5.449-20.847-0.949c-4.483-6.398-2.418-16.347,4.612-22.222
						C19.062,2.493,28.395,2.918,32.878,9.316z"/>
					<path id="XMLID_313_" style="clip-path:url(#XMLID_3_);fill:#00BDD6;stroke:#00BDD6;stroke-miterlimit:10;" d="M32.852,9.338
						c4.474,6.386,2.413,16.315-4.603,22.178c-7.015,5.862-16.331,5.438-20.804-0.946c-4.474-6.386-2.413-16.315,4.602-22.177
						C19.064,2.53,28.378,2.953,32.852,9.338z"/>
					<path id="XMLID_312_" style="clip-path:url(#XMLID_3_);fill:#00BDD6;stroke:#00BDD6;stroke-miterlimit:10;" d="M32.825,9.36
						c4.466,6.372,2.41,16.281-4.592,22.132c-7.002,5.852-16.298,5.428-20.764-0.944c-4.465-6.373-2.408-16.282,4.594-22.133
						C19.066,2.564,28.361,2.987,32.825,9.36z"/>
					<path id="XMLID_311_" style="clip-path:url(#XMLID_3_);fill:#00BDD6;stroke:#00BDD6;stroke-miterlimit:10;" d="M32.801,9.381
						c4.456,6.359,2.404,16.248-4.584,22.088c-6.988,5.839-16.264,5.417-20.721-0.943C3.04,24.167,5.093,14.277,12.08,8.438
						C19.068,2.599,28.346,3.021,32.801,9.381z"/>
					<path id="XMLID_310_" style="clip-path:url(#XMLID_3_);fill:#00BDD6;stroke:#00BDD6;stroke-miterlimit:10;" d="M32.775,9.402
						c4.447,6.348,2.398,16.217-4.575,22.044c-6.974,5.827-16.231,5.406-20.678-0.941c-4.447-6.347-2.4-16.216,4.574-22.044
						C19.069,2.635,28.329,3.056,32.775,9.402z"/>
					<path id="XMLID_309_" style="clip-path:url(#XMLID_3_);fill:#00BDD6;stroke:#00BDD6;stroke-miterlimit:10;" d="M32.75,9.424
						c4.438,6.334,2.394,16.183-4.565,21.998c-6.96,5.816-16.199,5.396-20.637-0.939c-4.438-6.334-2.394-16.182,4.566-21.998
						C19.072,2.669,28.311,3.089,32.75,9.424z"/>
					<path id="XMLID_308_" style="clip-path:url(#XMLID_3_);fill:#00BDD6;stroke:#00BDD6;stroke-miterlimit:10;" d="M32.724,9.445
						c4.429,6.321,2.39,16.15-4.556,21.954c-6.945,5.804-16.166,5.384-20.595-0.937c-4.429-6.321-2.388-16.15,4.557-21.954
						C19.074,2.705,28.295,3.124,32.724,9.445z"/>
					<path id="XMLID_307_" style="clip-path:url(#XMLID_3_);fill:#00BDD6;stroke:#00BDD6;stroke-miterlimit:10;" d="M32.698,9.466
						c4.42,6.308,2.385,16.118-4.547,21.91c-6.931,5.791-16.132,5.373-20.553-0.935c-4.42-6.308-2.384-16.117,4.547-21.909
						C19.077,2.74,28.279,3.158,32.698,9.466z"/>
					<path id="XMLID_306_" style="clip-path:url(#XMLID_3_);fill:#00BDD6;stroke:#00BDD6;stroke-miterlimit:10;" d="M32.673,9.488
						c4.411,6.295,2.379,16.085-4.538,21.865c-6.916,5.78-16.1,5.362-20.511-0.933c-4.41-6.296-2.38-16.084,4.538-21.864
						C19.079,2.774,28.263,3.192,32.673,9.488z"/>
					<path id="XMLID_305_" style="clip-path:url(#XMLID_3_);fill:#00BDD6;stroke:#00BDD6;stroke-miterlimit:10;" d="M32.647,9.509
						c4.402,6.283,2.374,16.051-4.528,21.819c-6.903,5.769-16.067,5.352-20.47-0.93c-4.402-6.282-2.375-16.052,4.528-21.82
						C19.082,2.81,28.245,3.227,32.647,9.509z"/>
					<path id="XMLID_304_" style="clip-path:url(#XMLID_3_);fill:#00BDD6;stroke:#00BDD6;stroke-miterlimit:10;" d="M32.621,9.531
						c4.393,6.27,2.371,16.018-4.519,21.775c-6.888,5.756-16.033,5.341-20.426-0.93c-4.394-6.269-2.37-16.018,4.518-21.775
						C19.083,2.846,28.229,3.261,32.621,9.531z"/>
					<path id="XMLID_303_" style="clip-path:url(#XMLID_3_);fill:#00BDD6;stroke:#00BDD6;stroke-miterlimit:10;" d="M32.597,9.551
						c4.383,6.257,2.364,15.986-4.51,21.731c-6.875,5.744-16.002,5.33-20.385-0.927c-4.385-6.256-2.365-15.986,4.509-21.73
						C19.086,2.88,28.211,3.296,32.597,9.551z"/>
					<path id="XMLID_302_" style="clip-path:url(#XMLID_3_);fill:#00BDD6;stroke:#00BDD6;stroke-miterlimit:10;" d="M32.571,9.574
						c4.374,6.244,2.359,15.953-4.5,21.685c-6.862,5.733-15.969,5.319-20.344-0.925C3.352,24.09,5.367,14.381,12.228,8.648
						C19.087,2.915,28.195,3.329,32.571,9.574z"/>
					<path id="XMLID_301_" style="clip-path:url(#XMLID_3_);fill:#00BDD6;stroke:#00BDD6;stroke-miterlimit:10;" d="M32.544,9.595
						c4.367,6.231,2.356,15.919-4.491,21.641c-6.847,5.721-15.935,5.307-20.302-0.924c-4.365-6.231-2.354-15.919,4.492-21.64
						C19.09,2.951,28.18,3.364,32.544,9.595z"/>
					<path id="XMLID_300_" style="clip-path:url(#XMLID_3_);fill:#00BDD6;stroke:#00BDD6;stroke-miterlimit:10;" d="M32.519,9.616
						c4.357,6.218,2.35,15.887-4.482,21.597c-6.832,5.708-15.902,5.296-20.259-0.922c-4.356-6.218-2.35-15.887,4.482-21.596
						C19.092,2.986,28.163,3.398,32.519,9.616z"/>
					<path id="XMLID_299_" style="clip-path:url(#XMLID_3_);fill:#00BDD6;stroke:#00BDD6;stroke-miterlimit:10;" d="M32.494,9.637
						c4.346,6.206,2.345,15.855-4.473,21.552c-6.818,5.698-15.869,5.286-20.217-0.918c-4.349-6.206-2.346-15.855,4.473-21.552
						C19.094,3.021,28.145,3.433,32.494,9.637z"/>
					<path id="XMLID_298_" style="clip-path:url(#XMLID_3_);fill:#00BDD6;stroke:#00BDD6;stroke-miterlimit:10;" d="M32.468,9.659
						c4.338,6.193,2.34,15.821-4.464,21.506c-6.804,5.686-15.838,5.275-20.176-0.917C3.49,24.055,5.488,14.427,12.292,8.742
						C19.096,3.055,28.129,3.467,32.468,9.659z"/>
					<path id="XMLID_297_" style="clip-path:url(#XMLID_3_);fill:#00BDD6;stroke:#00BDD6;stroke-miterlimit:10;" d="M32.442,9.681
						c4.331,6.179,2.336,15.788-4.454,21.461c-6.789,5.673-15.804,5.264-20.134-0.916c-4.329-6.18-2.335-15.789,4.454-21.462
						C19.1,3.091,28.112,3.501,32.442,9.681z"/>
					<path id="XMLID_296_" style="clip-path:url(#XMLID_3_);fill:#00BDD6;stroke:#00BDD6;stroke-miterlimit:10;" d="M32.417,9.701
						c4.32,6.167,2.331,15.755-4.445,21.418s-15.771,5.253-20.091-0.914C3.559,24.038,5.55,14.45,12.326,8.788
						C19.101,3.126,28.097,3.535,32.417,9.701z"/>
					<path id="XMLID_295_" style="clip-path:url(#XMLID_3_);fill:#00BDD6;stroke:#00BDD6;stroke-miterlimit:10;" d="M32.391,9.723
						c4.311,6.154,2.326,15.723-4.436,21.374c-6.761,5.65-15.738,5.242-20.049-0.913C3.594,24.03,5.58,14.462,12.341,8.811
						C19.104,3.161,28.08,3.569,32.391,9.723z"/>
					<path id="XMLID_294_" style="clip-path:url(#XMLID_3_);fill:#00BDD6;stroke:#00BDD6;stroke-miterlimit:10;" d="M32.365,9.745
						c4.303,6.14,2.321,15.689-4.427,21.328c-6.747,5.638-15.704,5.231-20.007-0.909c-4.302-6.141-2.321-15.69,4.426-21.328
						C19.105,3.196,28.063,3.604,32.365,9.745z"/>
					<path id="XMLID_293_" style="clip-path:url(#XMLID_3_);fill:#00BDD6;stroke:#00BDD6;stroke-miterlimit:10;" d="M32.34,9.766
						c4.295,6.128,2.317,15.656-4.416,21.284c-6.734,5.626-15.673,5.22-19.966-0.909c-4.293-6.127-2.316-15.657,4.417-21.283
						C19.107,3.231,28.046,3.638,32.34,9.766z"/>
					<path id="XMLID_292_" style="clip-path:url(#XMLID_3_);fill:#00BDD6;stroke:#00BDD6;stroke-miterlimit:10;" d="M32.315,9.787
						c4.284,6.115,2.311,15.623-4.408,21.239c-6.719,5.614-15.639,5.209-19.924-0.907c-4.285-6.114-2.311-15.623,4.408-21.238
						C19.11,3.266,28.03,3.672,32.315,9.787z"/>
					<path id="XMLID_291_" style="clip-path:url(#XMLID_3_);fill:#00BDD6;stroke:#00BDD6;stroke-miterlimit:10;" d="M32.289,9.809
						c4.275,6.103,2.306,15.591-4.399,21.194c-6.704,5.602-15.606,5.197-19.881-0.904c-4.276-6.102-2.306-15.591,4.398-21.194
						C19.112,3.302,28.013,3.706,32.289,9.809z"/>
					<path id="XMLID_290_" style="clip-path:url(#XMLID_3_);fill:#00BDD6;stroke:#00BDD6;stroke-miterlimit:10;" d="M32.263,9.83
						c4.267,6.09,2.301,15.558-4.389,21.149c-6.69,5.591-15.574,5.188-19.84-0.902c-4.267-6.089-2.302-15.558,4.389-21.149
						C19.114,3.337,27.996,3.741,32.263,9.83z"/>
					<path id="XMLID_289_" style="clip-path:url(#XMLID_3_);fill:#00BDD6;stroke:#00BDD6;stroke-miterlimit:10;" d="M32.238,9.851
						c4.258,6.077,2.296,15.526-4.38,21.105c-6.677,5.579-15.541,5.176-19.799-0.9C3.802,23.979,5.763,14.53,12.44,8.951
						C19.117,3.371,27.98,3.775,32.238,9.851z"/>
					<path id="XMLID_288_" style="clip-path:url(#XMLID_3_);fill:#00BDD6;stroke:#00BDD6;stroke-miterlimit:10;" d="M32.212,9.873
						c4.249,6.063,2.292,15.492-4.371,21.06c-6.662,5.567-15.508,5.165-19.756-0.9c-4.248-6.063-2.292-15.492,4.37-21.059
						C19.118,3.408,27.963,3.809,32.212,9.873z"/>
					<path id="XMLID_287_" style="clip-path:url(#XMLID_3_);fill:#00BDD6;stroke:#00BDD6;stroke-miterlimit:10;" d="M32.186,9.894
						c4.24,6.051,2.288,15.46-4.361,21.015c-6.648,5.556-15.475,5.155-19.715-0.896c-4.239-6.051-2.286-15.459,4.362-21.016
						C19.12,3.442,27.947,3.844,32.186,9.894z"/>
					<path id="XMLID_286_" style="clip-path:url(#XMLID_3_);fill:#00BDD6;stroke:#00BDD6;stroke-miterlimit:10;" d="M32.161,9.916
						c4.23,6.038,2.282,15.427-4.352,20.971c-6.635,5.543-15.441,5.143-19.672-0.895c-4.232-6.038-2.283-15.427,4.352-20.971
						C19.122,3.477,27.931,3.877,32.161,9.916z"/>
					<path id="XMLID_285_" style="clip-path:url(#XMLID_3_);fill:#00BDD6;stroke:#00BDD6;stroke-miterlimit:10;" d="M32.136,9.938
						c4.221,6.025,2.277,15.393-4.343,20.925c-6.621,5.532-15.409,5.132-19.629-0.893c-4.222-6.025-2.278-15.393,4.342-20.925
						C19.124,3.513,27.914,3.912,32.136,9.938z"/>
					<path id="XMLID_284_" style="clip-path:url(#XMLID_3_);fill:#00BDD6;stroke:#00BDD6;stroke-miterlimit:10;" d="M32.11,9.958
						c4.213,6.012,2.273,15.362-4.334,20.882c-6.605,5.52-15.376,5.121-19.588-0.891c-4.212-6.012-2.272-15.361,4.334-20.881
						C19.127,3.547,27.896,3.946,32.11,9.958z"/>
					<path id="XMLID_283_" style="clip-path:url(#XMLID_3_);fill:#00BDD6;stroke:#00BDD6;stroke-miterlimit:10;" d="M32.084,9.98
						c4.204,5.999,2.268,15.328-4.324,20.836c-6.592,5.509-15.344,5.111-19.547-0.888c-4.203-6-2.267-15.329,4.326-20.837
						C19.129,3.583,27.879,3.981,32.084,9.98z"/>
					<path id="XMLID_282_" style="clip-path:url(#XMLID_3_);fill:#00BDD6;stroke:#00BDD6;stroke-miterlimit:10;" d="M32.058,10.001
						c4.194,5.987,2.262,15.295-4.315,20.791c-6.577,5.496-15.31,5.099-19.505-0.887C4.043,23.92,5.976,14.611,12.554,9.115
						C19.132,3.618,27.864,4.015,32.058,10.001z"/>
					<path id="XMLID_281_" style="clip-path:url(#XMLID_3_);fill:#00BDD6;stroke:#00BDD6;stroke-miterlimit:10;" d="M32.032,10.023
						c4.186,5.973,2.258,15.262-4.305,20.747c-6.564,5.484-15.277,5.088-19.462-0.886C4.079,23.911,6.007,14.622,12.57,9.138
						C19.134,3.653,27.848,4.049,32.032,10.023z"/>
					<path id="XMLID_280_" style="clip-path:url(#XMLID_3_);fill:#00BDD6;stroke:#00BDD6;stroke-miterlimit:10;" d="M32.006,10.044
						c4.178,5.961,2.254,15.229-4.295,20.702c-6.55,5.473-15.244,5.078-19.421-0.883c-4.176-5.96-2.252-15.229,4.298-20.702
						C19.136,3.688,27.831,4.084,32.006,10.044z"/>
					<path id="XMLID_279_" style="clip-path:url(#XMLID_3_);fill:#00BDD6;stroke:#00BDD6;stroke-miterlimit:10;" d="M31.981,10.065
						c4.168,5.948,2.248,15.197-4.287,20.658c-6.536,5.461-15.212,5.067-19.379-0.881c-4.168-5.948-2.248-15.197,4.287-20.658
						C19.138,3.723,27.814,4.118,31.981,10.065z"/>
					<path id="XMLID_278_" style="clip-path:url(#XMLID_3_);fill:#00BDD6;stroke:#00BDD6;stroke-miterlimit:10;" d="M31.956,10.088
						c4.158,5.935,2.242,15.163-4.279,20.613S12.499,35.755,8.342,29.82c-4.159-5.934-2.244-15.163,4.277-20.612
						C19.14,3.758,27.797,4.153,31.956,10.088z"/>
					<path id="XMLID_277_" style="clip-path:url(#XMLID_3_);fill:#00BDD6;stroke:#00BDD6;stroke-miterlimit:10;" d="M31.93,10.108
						c4.15,5.922,2.239,15.131-4.268,20.568c-6.507,5.438-15.146,5.045-19.295-0.878c-4.15-5.922-2.239-15.13,4.268-20.568
						C19.142,3.793,27.78,4.186,31.93,10.108z"/>
					<path id="XMLID_276_" style="clip-path:url(#XMLID_3_);fill:#00BDD6;stroke:#00BDD6;stroke-miterlimit:10;" d="M31.904,10.13
						c4.141,5.909,2.234,15.098-4.259,20.524c-6.493,5.425-15.112,5.033-19.254-0.876c-4.14-5.91-2.232-15.098,4.26-20.524
						C19.144,3.828,27.765,4.22,31.904,10.13z"/>
					<path id="XMLID_275_" style="clip-path:url(#XMLID_3_);fill:#00BDD6;stroke:#00BDD6;stroke-miterlimit:10;" d="M31.879,10.151
						c4.132,5.896,2.229,15.065-4.25,20.479c-6.478,5.413-15.079,5.022-19.211-0.874c-4.131-5.896-2.228-15.065,4.25-20.479
						C19.147,3.863,27.748,4.254,31.879,10.151z"/>
					<path id="XMLID_274_" style="clip-path:url(#XMLID_3_);fill:#00BDD6;stroke:#00BDD6;stroke-miterlimit:10;" d="M31.854,10.172
						c4.122,5.883,2.223,15.032-4.241,20.434c-6.464,5.402-15.047,5.012-19.169-0.872C4.321,23.851,6.22,14.702,12.684,9.301
						C19.15,3.899,27.731,4.289,31.854,10.172z"/>
					<path id="XMLID_272_" style="clip-path:url(#XMLID_3_);fill:#00BDD6;stroke:#00BDD6;stroke-miterlimit:10;" d="M31.827,10.194
						c4.113,5.871,2.219,14.999-4.23,20.389c-6.451,5.39-15.015,5-19.128-0.87c-4.113-5.871-2.219-14.999,4.231-20.39
						C19.151,3.933,27.715,4.323,31.827,10.194z"/>
					<path id="XMLID_271_" style="clip-path:url(#XMLID_3_);fill:#00BDD6;stroke:#00BDD6;stroke-miterlimit:10;" d="M31.802,10.215
						c4.105,5.858,2.215,14.966-4.223,20.344c-6.436,5.379-14.98,4.99-19.084-0.868C4.39,23.834,6.281,14.726,12.717,9.347
						C19.154,3.969,27.698,4.358,31.802,10.215z"/>
					<path id="XMLID_270_" style="clip-path:url(#XMLID_3_);fill:#00BDD6;stroke:#00BDD6;stroke-miterlimit:10;" d="M31.777,10.237
						c4.095,5.845,2.209,14.933-4.213,20.3c-6.423,5.366-14.948,4.978-19.043-0.866c-4.095-5.845-2.209-14.933,4.212-20.3
						C19.155,4.004,27.681,4.392,31.777,10.237z"/>
					<path id="XMLID_269_" style="clip-path:url(#XMLID_3_);fill:#00BDD6;stroke:#00BDD6;stroke-miterlimit:10;" d="M31.751,10.258
						c4.086,5.832,2.204,14.901-4.203,20.254c-6.409,5.355-14.916,4.969-19.002-0.864c-4.086-5.831-2.205-14.9,4.204-20.255
						C19.158,4.04,27.665,4.426,31.751,10.258z"/>
					<path id="XMLID_268_" style="clip-path:url(#XMLID_3_);fill:#00BDD6;stroke:#00BDD6;stroke-miterlimit:10;" d="M31.725,10.279
						c4.077,5.82,2.2,14.868-4.194,20.211c-6.394,5.343-14.883,4.956-18.96-0.862c-4.077-5.82-2.199-14.868,4.195-20.21
						C19.16,4.075,27.648,4.46,31.725,10.279z"/>
					<path id="XMLID_267_" style="clip-path:url(#XMLID_3_);fill:#00BDD6;stroke:#00BDD6;stroke-miterlimit:10;" d="M31.7,10.301
						c4.069,5.805,2.195,14.834-4.185,20.166c-6.379,5.33-14.849,4.946-18.918-0.86C4.529,23.8,6.403,14.772,12.782,9.44
						C19.162,4.11,27.632,4.495,31.7,10.301z"/>
					<path id="XMLID_266_" style="clip-path:url(#XMLID_3_);fill:#00BDD6;stroke:#00BDD6;stroke-miterlimit:10;" d="M31.675,10.323
						c4.059,5.793,2.189,14.801-4.176,20.12c-6.365,5.32-14.816,4.935-18.876-0.858c-4.059-5.793-2.19-14.801,4.177-20.12
						C19.165,4.145,27.615,4.529,31.675,10.323z"/>
					<path id="XMLID_265_" style="clip-path:url(#XMLID_3_);fill:#00BDD6;stroke:#00BDD6;stroke-miterlimit:10;" d="M31.649,10.343
						c4.05,5.782,2.184,14.77-4.167,20.077c-6.351,5.307-14.783,4.924-18.833-0.856c-4.05-5.781-2.185-14.769,4.166-20.077
						C19.167,4.179,27.599,4.563,31.649,10.343z"/>
					<path id="XMLID_264_" style="clip-path:url(#XMLID_3_);fill:#00BDD6;stroke:#00BDD6;stroke-miterlimit:10;" d="M31.623,10.365
						c4.041,5.767,2.18,14.737-4.158,20.031c-6.337,5.296-14.75,4.913-18.791-0.854c-4.042-5.768-2.181-14.736,4.156-20.031
						C19.168,4.215,27.581,4.598,31.623,10.365z"/>
					<path id="XMLID_263_" style="clip-path:url(#XMLID_3_);fill:#00BDD6;stroke:#00BDD6;stroke-miterlimit:10;" d="M31.598,10.387
						c4.032,5.754,2.175,14.703-4.148,19.987c-6.323,5.283-14.719,4.902-18.749-0.853c-4.033-5.755-2.175-14.704,4.148-19.987
						C19.171,4.25,27.565,4.632,31.598,10.387z"/>
					<path id="XMLID_262_" style="clip-path:url(#XMLID_3_);fill:#00BDD6;stroke:#00BDD6;stroke-miterlimit:10;" d="M31.572,10.407
						c4.024,5.742,2.17,14.671-4.139,19.942c-6.309,5.272-14.685,4.892-18.708-0.851c-4.023-5.742-2.171-14.67,4.139-19.942
						C19.172,4.285,27.549,4.666,31.572,10.407z"/>
					<path id="XMLID_261_" style="clip-path:url(#XMLID_3_);fill:#00BDD6;stroke:#00BDD6;stroke-miterlimit:10;" d="M31.546,10.429
						c4.015,5.729,2.166,14.638-4.13,19.898c-6.294,5.261-14.651,4.88-18.666-0.849C4.737,23.75,6.585,14.841,12.88,9.581
						C19.175,4.32,27.533,4.7,31.546,10.429z"/>
					<path id="XMLID_260_" style="clip-path:url(#XMLID_3_);fill:#00BDD6;stroke:#00BDD6;stroke-miterlimit:10;" d="M31.52,10.451
						c4.005,5.716,2.161,14.605-4.12,19.853c-6.281,5.248-14.618,4.869-18.624-0.847c-4.005-5.715-2.161-14.604,4.12-19.852
						S27.516,4.735,31.52,10.451z"/>
					<path id="XMLID_259_" style="clip-path:url(#XMLID_3_);fill:#00BDD6;stroke:#00BDD6;stroke-miterlimit:10;" d="M31.496,10.472
						c3.995,5.704,2.156,14.572-4.112,19.808c-6.266,5.237-14.586,4.858-18.581-0.845c-3.997-5.704-2.156-14.572,4.11-19.809
						C19.179,4.39,27.499,4.769,31.496,10.472z"/>
					<path id="XMLID_258_" style="clip-path:url(#XMLID_3_);fill:#00BDD6;stroke:#00BDD6;stroke-miterlimit:10;" d="M31.47,10.493
						c3.986,5.691,2.151,14.539-4.103,19.764c-6.251,5.225-14.553,4.847-18.54-0.844c-3.987-5.69-2.15-14.538,4.101-19.763
						C19.182,4.425,27.482,4.803,31.47,10.493z"/>
					<path id="XMLID_257_" style="clip-path:url(#XMLID_3_);fill:#00BDD6;stroke:#00BDD6;stroke-miterlimit:10;" d="M31.444,10.515
						c3.978,5.678,2.145,14.506-4.092,19.719c-6.238,5.213-14.52,4.836-18.499-0.842c-3.977-5.677-2.146-14.505,4.093-19.719
						C19.185,4.461,27.466,4.837,31.444,10.515z"/>
					<path id="XMLID_256_" style="clip-path:url(#XMLID_3_);fill:#00BDD6;stroke:#00BDD6;stroke-miterlimit:10;" d="M31.419,10.536
						c3.968,5.665,2.141,14.473-4.083,19.674c-6.225,5.201-14.487,4.824-18.457-0.839C4.91,23.706,6.738,14.898,12.963,9.696
						C19.186,4.496,27.45,4.871,31.419,10.536z"/>
					<path id="XMLID_255_" style="clip-path:url(#XMLID_3_);fill:#00BDD6;stroke:#00BDD6;stroke-miterlimit:10;" d="M31.392,10.557
						c3.96,5.652,2.137,14.44-4.074,19.63c-6.209,5.188-14.452,4.814-18.413-0.838c-3.96-5.652-2.136-14.44,4.073-19.63
						C19.188,4.531,27.433,4.906,31.392,10.557z"/>
					<path id="XMLID_254_" style="clip-path:url(#XMLID_3_);fill:#00BDD6;stroke:#00BDD6;stroke-miterlimit:10;" d="M31.366,10.579
						c3.951,5.638,2.132,14.407-4.064,19.585c-6.196,5.177-14.421,4.803-18.372-0.835c-3.951-5.639-2.131-14.407,4.065-19.585
						C19.19,4.566,27.416,4.94,31.366,10.579z"/>
					<path id="XMLID_253_" style="clip-path:url(#XMLID_3_);fill:#00BDD6;stroke:#00BDD6;stroke-miterlimit:10;" d="M31.342,10.6
						c3.942,5.626,2.126,14.374-4.055,19.54c-6.183,5.166-14.389,4.793-18.331-0.834c-3.941-5.626-2.127-14.374,4.056-19.54
						C19.192,4.602,27.399,4.975,31.342,10.6z"/>
					<path id="XMLID_252_" style="clip-path:url(#XMLID_3_);fill:#00BDD6;stroke:#00BDD6;stroke-miterlimit:10;" d="M31.316,10.622
						c3.933,5.613,2.121,14.341-4.046,19.495c-6.168,5.155-14.356,4.782-18.288-0.831C5.048,23.672,6.859,14.944,13.027,9.79
						C19.195,4.636,27.383,5.008,31.316,10.622z"/>
					<path id="XMLID_251_" style="clip-path:url(#XMLID_3_);fill:#00BDD6;stroke:#00BDD6;stroke-miterlimit:10;" d="M31.29,10.643
						c3.923,5.6,2.117,14.309-4.037,19.45c-6.153,5.142-14.322,4.771-18.246-0.83c-3.924-5.6-2.116-14.309,4.037-19.45
						C19.198,4.671,27.367,5.043,31.29,10.643z"/>
					<path id="XMLID_250_" style="clip-path:url(#XMLID_3_);fill:#00BDD6;stroke:#00BDD6;stroke-miterlimit:10;" d="M31.265,10.665
						c3.915,5.587,2.112,14.275-4.027,19.405c-6.139,5.13-14.289,4.759-18.206-0.828C5.117,23.655,6.92,14.966,13.061,9.836
						C19.2,4.706,27.35,5.077,31.265,10.665z"/>
					<path id="XMLID_249_" style="clip-path:url(#XMLID_3_);fill:#00BDD6;stroke:#00BDD6;stroke-miterlimit:10;" d="M31.239,10.686
						c3.906,5.575,2.106,14.244-4.019,19.361c-6.125,5.119-14.256,4.749-18.162-0.826C5.153,23.647,6.951,14.978,13.076,9.86
						C19.202,4.741,27.333,5.112,31.239,10.686z"/>
					<path id="XMLID_248_" style="clip-path:url(#XMLID_3_);fill:#00BDD6;stroke:#00BDD6;stroke-miterlimit:10;" d="M31.213,10.708
						c3.897,5.562,2.102,14.209-4.009,19.316c-6.111,5.106-14.224,4.737-18.121-0.825c-3.897-5.561-2.102-14.21,4.008-19.316
						C19.204,4.777,27.316,5.146,31.213,10.708z"/>
					<path id="XMLID_247_" style="clip-path:url(#XMLID_3_);fill:#00BDD6;stroke:#00BDD6;stroke-miterlimit:10;" d="M31.187,10.728
						c3.888,5.549,2.099,14.177-3.999,19.272c-6.097,5.094-14.191,4.727-18.079-0.822c-3.888-5.549-2.097-14.177,4-19.272
						C19.206,4.812,27.3,5.18,31.187,10.728z"/>
					<path id="XMLID_246_" style="clip-path:url(#XMLID_3_);fill:#00BDD6;stroke:#00BDD6;stroke-miterlimit:10;" d="M31.162,10.75
						c3.879,5.537,2.092,14.145-3.99,19.227c-6.083,5.083-14.158,4.716-18.037-0.82C5.256,23.621,7.043,15.013,13.126,9.93
						C19.208,4.847,27.284,5.214,31.162,10.75z"/>
					<path id="XMLID_245_" style="clip-path:url(#XMLID_3_);fill:#00BDD6;stroke:#00BDD6;stroke-miterlimit:10;" d="M31.137,10.772
						c3.869,5.524,2.086,14.111-3.982,19.182c-6.069,5.072-14.125,4.705-17.994-0.818c-3.87-5.524-2.089-14.111,3.981-19.182
						C19.21,4.882,27.267,5.248,31.137,10.772z"/>
					<path id="XMLID_244_" style="clip-path:url(#XMLID_3_);fill:#00BDD6;stroke:#00BDD6;stroke-miterlimit:10;" d="M31.11,10.793
						c3.862,5.511,2.083,14.079-3.971,19.138c-6.054,5.059-14.092,4.694-17.953-0.816c-3.86-5.511-2.083-14.078,3.972-19.137
						C19.213,4.918,27.25,5.283,31.11,10.793z"/>
					<path id="XMLID_243_" style="clip-path:url(#XMLID_3_);fill:#00BDD6;stroke:#00BDD6;stroke-miterlimit:10;" d="M31.085,10.815
						c3.852,5.497,2.079,14.045-3.962,19.093c-6.04,5.048-14.059,4.683-17.912-0.815C5.36,23.595,7.134,15.047,13.175,10
						C19.215,4.952,27.233,5.317,31.085,10.815z"/>
					<path id="XMLID_242_" style="clip-path:url(#XMLID_3_);fill:#00BDD6;stroke:#00BDD6;stroke-miterlimit:10;" d="M31.06,10.836
						c3.842,5.484,2.073,14.013-3.954,19.049c-6.025,5.035-14.026,4.671-17.869-0.813c-3.843-5.484-2.071-14.013,3.954-19.049
						C19.217,4.988,27.217,5.351,31.06,10.836z"/>
					<path id="XMLID_241_" style="clip-path:url(#XMLID_3_);fill:#00BDD6;stroke:#00BDD6;stroke-miterlimit:10;" d="M31.035,10.857
						c3.833,5.471,2.067,13.98-3.945,19.004c-6.012,5.024-13.993,4.66-17.827-0.811c-3.834-5.472-2.068-13.98,3.944-19.004
						S27.201,5.386,31.035,10.857z"/>
					<path id="XMLID_240_" style="clip-path:url(#XMLID_3_);fill:#00BDD6;stroke:#00BDD6;stroke-miterlimit:10;" d="M31.008,10.879
						c3.826,5.458,2.063,13.947-3.934,18.959c-5.998,5.011-13.961,4.65-17.786-0.81c-3.824-5.459-2.064-13.946,3.935-18.959
						C19.221,5.058,27.184,5.42,31.008,10.879z"/>
					<path id="XMLID_239_" style="clip-path:url(#XMLID_3_);fill:#00BDD6;stroke:#00BDD6;stroke-miterlimit:10;" d="M30.983,10.9
						c3.816,5.446,2.059,13.914-3.926,18.914c-5.983,5-13.927,4.639-17.742-0.808c-3.816-5.446-2.058-13.913,3.925-18.914
						C19.223,5.093,27.168,5.454,30.983,10.9z"/>
					<path id="XMLID_238_" style="clip-path:url(#XMLID_3_);fill:#00BDD6;stroke:#00BDD6;stroke-miterlimit:10;" d="M30.958,10.921
						c3.806,5.433,2.053,13.882-3.917,18.871c-5.969,4.988-13.895,4.628-17.701-0.806c-3.808-5.433-2.053-13.881,3.915-18.869
						C19.225,5.128,27.15,5.488,30.958,10.921z"/>
					<path id="XMLID_237_" style="clip-path:url(#XMLID_3_);fill:#00BDD6;stroke:#00BDD6;stroke-miterlimit:10;" d="M30.932,10.943
						c3.798,5.42,2.048,13.848-3.906,18.824c-5.956,4.977-13.862,4.617-17.66-0.803c-3.798-5.42-2.048-13.849,3.907-18.825
						C19.227,5.163,27.134,5.523,30.932,10.943z"/>
					<path id="XMLID_236_" style="clip-path:url(#XMLID_3_);fill:#00BDD6;stroke:#00BDD6;stroke-miterlimit:10;" d="M30.906,10.965
						c3.79,5.406,2.043,13.814-3.897,18.779C21.068,34.709,13.18,34.35,9.39,28.943c-3.788-5.407-2.043-13.815,3.898-18.78
						C19.23,5.198,27.118,5.556,30.906,10.965z"/>
					<path id="XMLID_235_" style="clip-path:url(#XMLID_3_);fill:#00BDD6;stroke:#00BDD6;stroke-miterlimit:10;" d="M30.88,10.985
						c3.78,5.394,2.038,13.783-3.888,18.735c-5.927,4.953-13.796,4.595-17.575-0.799c-3.78-5.395-2.039-13.783,3.888-18.736
						C19.232,5.233,27.101,5.591,30.88,10.985z"/>
					<path id="XMLID_234_" style="clip-path:url(#XMLID_3_);fill:#00BDD6;stroke:#00BDD6;stroke-miterlimit:10;" d="M30.856,11.007
						c3.77,5.382,2.034,13.749-3.879,18.691c-5.913,4.941-13.765,4.584-17.534-0.797c-3.771-5.382-2.034-13.75,3.879-18.691
						C19.235,5.268,27.084,5.625,30.856,11.007z"/>
					<path id="XMLID_233_" style="clip-path:url(#XMLID_3_);fill:#00BDD6;stroke:#00BDD6;stroke-miterlimit:10;" d="M30.829,11.029
						c3.762,5.368,2.029,13.716-3.869,18.645c-5.899,4.929-13.73,4.574-17.492-0.795s-2.028-13.717,3.87-18.646
						C19.236,5.303,27.067,5.66,30.829,11.029z"/>
					<path id="XMLID_232_" style="clip-path:url(#XMLID_3_);fill:#00BDD6;stroke:#00BDD6;stroke-miterlimit:10;" d="M30.804,11.05
						c3.753,5.355,2.024,13.683-3.861,18.601c-5.884,4.918-13.697,4.562-17.449-0.794c-3.753-5.355-2.025-13.684,3.859-18.6
						C19.239,5.339,27.051,5.694,30.804,11.05z"/>
					<path id="XMLID_231_" style="clip-path:url(#XMLID_3_);fill:#00BDD6;stroke:#00BDD6;stroke-miterlimit:10;" d="M30.778,11.071
						c3.744,5.343,2.019,13.651-3.851,18.557c-5.872,4.906-13.665,4.551-17.408-0.792C5.776,23.492,7.5,15.185,13.37,10.28
						C19.24,5.374,27.035,5.728,30.778,11.071z"/>
					<path id="XMLID_230_" style="clip-path:url(#XMLID_3_);fill:#00BDD6;stroke:#00BDD6;stroke-miterlimit:10;" d="M30.752,11.093
						c3.735,5.33,2.015,13.618-3.842,18.511c-5.857,4.895-13.631,4.541-17.366-0.788c-3.734-5.331-2.014-13.618,3.842-18.513
						C19.243,5.41,27.018,5.763,30.752,11.093z"/>
					<path id="XMLID_229_" style="clip-path:url(#XMLID_3_);fill:#00BDD6;stroke:#00BDD6;stroke-miterlimit:10;" d="M30.726,11.114
						c3.725,5.317,2.01,13.584-3.833,18.467c-5.842,4.881-13.598,4.529-17.324-0.788c-3.725-5.317-2.009-13.585,3.833-18.467
						C19.245,5.444,27.001,5.796,30.726,11.114z"/>
					<path id="XMLID_228_" style="clip-path:url(#XMLID_3_);fill:#00BDD6;stroke:#00BDD6;stroke-miterlimit:10;" d="M30.701,11.135
						c3.717,5.304,2.004,13.553-3.823,18.422c-5.828,4.87-13.566,4.518-17.282-0.786c-3.716-5.304-2.005-13.551,3.824-18.422
						C19.247,5.478,26.984,5.831,30.701,11.135z"/>
					<path id="XMLID_203_" style="clip-path:url(#XMLID_3_);fill:#00BDD6;stroke:#00BDD6;stroke-miterlimit:10;" d="M30.676,11.157
						c3.707,5.292,2,13.52-3.814,18.377c-5.814,4.859-13.533,4.508-17.24-0.784c-3.708-5.292-2-13.52,3.814-18.377
						C19.25,5.514,26.968,5.865,30.676,11.157z"/>
					<path id="XMLID_202_" style="clip-path:url(#XMLID_3_);fill:#00BDD6;stroke:#00BDD6;stroke-miterlimit:10;" d="M30.65,11.178
						c3.698,5.279,1.995,13.486-3.806,18.333c-5.798,4.846-13.498,4.497-17.197-0.782c-3.698-5.279-1.994-13.488,3.805-18.333
						C19.253,5.55,26.952,5.899,30.65,11.178z"/>
					<path id="XMLID_201_" style="clip-path:url(#XMLID_3_);fill:#00BDD6;stroke:#00BDD6;stroke-miterlimit:10;" d="M30.625,11.2
						c3.689,5.266,1.989,13.454-3.796,18.288c-5.786,4.835-13.467,4.485-17.156-0.78c-3.69-5.266-1.99-13.454,3.796-18.289
						C19.254,5.585,26.935,5.934,30.625,11.2z"/>
					<path id="XMLID_200_" style="clip-path:url(#XMLID_3_);fill:#00BDD6;stroke:#00BDD6;stroke-miterlimit:10;" d="M30.599,11.221
						c3.681,5.253,1.985,13.421-3.785,18.244c-5.772,4.823-13.435,4.475-17.115-0.779c-3.68-5.253-1.986-13.421,3.787-18.244
						C19.257,5.619,26.918,5.968,30.599,11.221z"/>
					<path id="XMLID_199_" style="clip-path:url(#XMLID_3_);fill:#00BDD6;stroke:#00BDD6;stroke-miterlimit:10;" d="M30.573,11.243
						c3.672,5.239,1.98,13.388-3.776,18.199c-5.758,4.811-13.401,4.463-17.073-0.777c-3.671-5.24-1.98-13.387,3.777-18.199
						C19.258,5.655,26.902,6.002,30.573,11.243z"/>
					<path id="XMLID_198_" style="clip-path:url(#XMLID_3_);fill:#00BDD6;stroke:#00BDD6;stroke-miterlimit:10;" d="M30.547,11.264
						c3.663,5.226,1.976,13.355-3.767,18.154c-5.743,4.8-13.367,4.453-17.03-0.774c-3.662-5.227-1.975-13.356,3.768-18.155
						C19.26,5.69,26.885,6.036,30.547,11.264z"/>
					<path id="XMLID_197_" style="clip-path:url(#XMLID_3_);fill:#00BDD6;stroke:#00BDD6;stroke-miterlimit:10;" d="M30.522,11.285
						c3.653,5.214,1.97,13.322-3.758,18.11c-5.729,4.787-13.335,4.441-16.989-0.773s-1.97-13.322,3.759-18.109
						C19.263,5.725,26.869,6.071,30.522,11.285z"/>
					<path id="XMLID_196_" style="clip-path:url(#XMLID_3_);fill:#00BDD6;stroke:#00BDD6;stroke-miterlimit:10;" d="M30.497,11.306
						c3.644,5.202,1.965,13.29-3.749,18.066c-5.715,4.775-13.302,4.43-16.947-0.77c-3.645-5.202-1.966-13.29,3.749-18.066
						C19.265,5.76,26.852,6.105,30.497,11.306z"/>
					<path id="XMLID_195_" style="clip-path:url(#XMLID_3_);fill:#00BDD6;stroke:#00BDD6;stroke-miterlimit:10;" d="M30.471,11.328
						c3.635,5.188,1.961,13.256-3.74,18.02c-5.7,4.764-13.27,4.419-16.905-0.769c-3.635-5.189-1.961-13.257,3.739-18.02
						C19.267,5.795,26.835,6.14,30.471,11.328z"/>
					<path id="XMLID_194_" style="clip-path:url(#XMLID_3_);fill:#00BDD6;stroke:#00BDD6;stroke-miterlimit:10;" d="M30.445,11.35
						c3.627,5.175,1.957,13.223-3.73,17.975s-13.237,4.408-16.864-0.767c-3.626-5.175-1.955-13.224,3.733-17.976
						C19.27,5.83,26.82,6.173,30.445,11.35z"/>
					<path id="XMLID_193_" style="clip-path:url(#XMLID_3_);fill:#00BDD6;stroke:#00BDD6;stroke-miterlimit:10;" d="M30.42,11.37
						c3.617,5.163,1.951,13.191-3.722,17.931c-5.672,4.739-13.203,4.398-16.82-0.765c-3.617-5.163-1.952-13.19,3.721-17.931
						C19.271,5.866,26.802,6.208,30.42,11.37z"/>
					<path id="XMLID_192_" style="clip-path:url(#XMLID_3_);fill:#00BDD6;stroke:#00BDD6;stroke-miterlimit:10;" d="M30.394,11.392
						c3.608,5.15,1.946,13.158-3.713,17.887c-5.657,4.728-13.17,4.386-16.777-0.764c-3.609-5.149-1.947-13.158,3.711-17.886
						C19.273,5.9,26.786,6.242,30.394,11.392z"/>
					<path id="XMLID_191_" style="clip-path:url(#XMLID_3_);fill:#00BDD6;stroke:#00BDD6;stroke-miterlimit:10;" d="M30.368,11.414
						c3.599,5.137,1.941,13.124-3.703,17.841c-5.644,4.717-13.137,4.376-16.737-0.761c-3.599-5.137-1.941-13.125,3.703-17.841
						C19.275,5.936,26.769,6.277,30.368,11.414z"/>
					<path id="XMLID_190_" style="clip-path:url(#XMLID_3_);fill:#00BDD6;stroke:#00BDD6;stroke-miterlimit:10;" d="M30.343,11.435
						c3.59,5.124,1.937,13.092-3.694,17.797c-5.631,4.705-13.105,4.365-16.695-0.76c-3.59-5.124-1.936-13.092,3.694-17.796
						C19.277,5.971,26.752,6.311,30.343,11.435z"/>
					<path id="XMLID_178_" style="clip-path:url(#XMLID_3_);fill:#00BDD6;stroke:#00BDD6;stroke-miterlimit:10;" d="M30.318,11.456
						c3.581,5.112,1.931,13.06-3.685,17.752c-5.615,4.693-13.072,4.354-16.653-0.757c-3.581-5.112-1.932-13.06,3.684-17.752
						C19.28,6.006,26.736,6.345,30.318,11.456z"/>
					<path id="XMLID_177_" style="clip-path:url(#XMLID_3_);fill:#00BDD6;stroke:#00BDD6;stroke-miterlimit:10;" d="M30.292,11.477
						c3.572,5.099,1.926,13.026-3.675,17.707c-5.602,4.681-13.039,4.343-16.611-0.755c-3.573-5.099-1.927-13.026,3.675-17.707
						C19.282,6.041,26.719,6.379,30.292,11.477z"/>
					<path id="XMLID_176_" style="clip-path:url(#XMLID_3_);fill:#00BDD6;stroke:#00BDD6;stroke-miterlimit:10;" d="M30.265,11.499
						c3.564,5.085,1.923,12.993-3.664,17.662c-5.588,4.669-13.005,4.332-16.57-0.753c-3.562-5.086-1.921-12.994,3.667-17.663
						C19.285,6.076,26.703,6.414,30.265,11.499z"/>
					<path id="XMLID_175_" style="clip-path:url(#XMLID_3_);fill:#00BDD6;stroke:#00BDD6;stroke-miterlimit:10;" d="M30.241,11.52
						c3.554,5.073,1.917,12.961-3.657,17.618c-5.573,4.657-12.972,4.321-16.527-0.752c-3.554-5.072-1.917-12.96,3.656-17.618
						C19.287,6.112,26.686,6.448,30.241,11.52z"/>
					<path id="XMLID_174_" style="clip-path:url(#XMLID_3_);fill:#00BDD6;stroke:#00BDD6;stroke-miterlimit:10;" d="M30.215,11.542
						c3.545,5.059,1.912,12.927-3.647,17.573c-5.56,4.645-12.941,4.31-16.486-0.751C6.537,23.306,8.17,15.438,13.73,10.792
						C19.289,6.146,26.669,6.482,30.215,11.542z"/>
					<path id="XMLID_173_" style="clip-path:url(#XMLID_3_);fill:#00BDD6;stroke:#00BDD6;stroke-miterlimit:10;" d="M30.189,11.563
						c3.536,5.047,1.907,12.895-3.637,17.528c-5.546,4.634-12.908,4.3-16.444-0.747C6.571,23.296,8.2,15.449,13.747,10.815
						C19.291,6.181,26.653,6.517,30.189,11.563z"/>
					<path id="XMLID_172_" style="clip-path:url(#XMLID_3_);fill:#00BDD6;stroke:#00BDD6;stroke-miterlimit:10;" d="M30.164,11.585
						c3.527,5.034,1.903,12.862-3.628,17.483c-5.532,4.622-12.874,4.288-16.402-0.745c-3.527-5.034-1.903-12.862,3.629-17.484
						C19.293,6.217,26.637,6.551,30.164,11.585z"/>
					<path id="XMLID_171_" style="clip-path:url(#XMLID_3_);fill:#00BDD6;stroke:#00BDD6;stroke-miterlimit:10;" d="M30.138,11.606
						c3.518,5.021,1.898,12.829-3.62,17.44c-5.518,4.61-12.841,4.277-16.359-0.744c-3.518-5.021-1.897-12.829,3.62-17.439
						C19.295,6.251,26.62,6.585,30.138,11.606z"/>
					<path id="XMLID_170_" style="clip-path:url(#XMLID_3_);fill:#00BDD6;stroke:#00BDD6;stroke-miterlimit:10;" d="M30.112,11.627
						c3.509,5.008,1.893,12.796-3.61,17.394C21,33.62,13.694,33.288,10.184,28.28c-3.509-5.008-1.892-12.795,3.611-17.395
						C19.298,6.287,26.603,6.619,30.112,11.627z"/>
					<path id="XMLID_169_" style="clip-path:url(#XMLID_3_);fill:#00BDD6;stroke:#00BDD6;stroke-miterlimit:10;" d="M30.086,11.649
						c3.5,4.996,1.888,12.763-3.6,17.349c-5.488,4.586-12.776,4.256-16.276-0.74c-3.501-4.995-1.888-12.763,3.601-17.35
						C19.3,6.322,26.586,6.654,30.086,11.649z"/>
					<path id="XMLID_168_" style="clip-path:url(#XMLID_3_);fill:#00BDD6;stroke:#00BDD6;stroke-miterlimit:10;" d="M30.061,11.67
						c3.49,4.983,1.883,12.731-3.591,17.305c-5.474,4.574-12.742,4.244-16.234-0.739c-3.491-4.982-1.883-12.73,3.591-17.305
						C19.303,6.357,26.57,6.687,30.061,11.67z"/>
					<path id="XMLID_167_" style="clip-path:url(#XMLID_3_);fill:#00BDD6;stroke:#00BDD6;stroke-miterlimit:10;" d="M30.036,11.692
						c3.481,4.97,1.878,12.697-3.582,17.26c-5.461,4.564-12.71,4.233-16.192-0.736c-3.482-4.97-1.878-12.698,3.582-17.261
						C19.304,6.393,26.554,6.722,30.036,11.692z"/>
					<path id="XMLID_166_" style="clip-path:url(#XMLID_3_);fill:#00BDD6;stroke:#00BDD6;stroke-miterlimit:10;" d="M30.009,11.713
						c3.474,4.957,1.874,12.665-3.572,17.216c-5.446,4.55-12.677,4.221-16.15-0.735C6.815,23.237,8.414,15.53,13.86,10.979
						C19.307,6.428,26.537,6.756,30.009,11.713z"/>
					<path id="XMLID_165_" style="clip-path:url(#XMLID_3_);fill:#00BDD6;stroke:#00BDD6;stroke-miterlimit:10;" d="M29.985,11.735
						c3.463,4.944,1.868,12.632-3.564,17.171c-5.432,4.539-12.643,4.211-16.108-0.733c-3.464-4.945-1.869-12.632,3.563-17.171
						C19.308,6.463,26.52,6.791,29.985,11.735z"/>
					<path id="XMLID_164_" style="clip-path:url(#XMLID_3_);fill:#00BDD6;stroke:#00BDD6;stroke-miterlimit:10;" d="M29.959,11.756
						c3.454,4.93,1.863,12.598-3.554,17.126c-5.418,4.528-12.611,4.2-16.066-0.731c-3.456-4.931-1.864-12.598,3.553-17.125
						C19.311,6.498,26.503,6.825,29.959,11.756z"/>
					<path id="XMLID_163_" style="clip-path:url(#XMLID_3_);fill:#00BDD6;stroke:#00BDD6;stroke-miterlimit:10;" d="M29.933,11.777
						c3.446,4.918,1.859,12.566-3.545,17.081c-5.403,4.516-12.578,4.19-16.024-0.729c-3.446-4.918-1.858-12.565,3.545-17.081
						C19.313,6.533,26.487,6.859,29.933,11.777z"/>
					<path id="XMLID_162_" style="clip-path:url(#XMLID_3_);fill:#00BDD6;stroke:#00BDD6;stroke-miterlimit:10;" d="M29.907,11.799
						c3.438,4.905,1.854,12.533-3.536,17.036c-5.389,4.504-12.544,4.179-15.982-0.726c-3.436-4.905-1.853-12.534,3.536-17.037
						C19.315,6.568,26.471,6.893,29.907,11.799z"/>
					<path id="XMLID_161_" style="clip-path:url(#XMLID_3_);fill:#00BDD6;stroke:#00BDD6;stroke-miterlimit:10;" d="M29.882,11.82
						c3.428,4.892,1.848,12.5-3.527,16.992c-5.375,4.492-12.512,4.168-15.94-0.725c-3.428-4.892-1.849-12.5,3.526-16.992
						C19.318,6.603,26.454,6.927,29.882,11.82z"/>
					<path id="XMLID_160_" style="clip-path:url(#XMLID_3_);fill:#00BDD6;stroke:#00BDD6;stroke-miterlimit:10;" d="M29.857,11.841
						c3.418,4.879,1.843,12.467-3.517,16.947c-5.362,4.48-12.48,4.157-15.899-0.723c-3.42-4.879-1.845-12.467,3.517-16.947
						C19.32,6.638,26.437,6.962,29.857,11.841z"/>
					<path id="XMLID_159_" style="clip-path:url(#XMLID_3_);fill:#00BDD6;stroke:#00BDD6;stroke-miterlimit:10;" d="M29.83,11.863
						c3.411,4.867,1.841,12.434-3.508,16.903c-5.346,4.468-12.446,4.145-15.856-0.722c-3.41-4.867-1.838-12.434,3.508-16.902
						C19.321,6.673,26.42,6.996,29.83,11.863z"/>
					<path id="XMLID_158_" style="clip-path:url(#XMLID_3_);fill:#00BDD6;stroke:#00BDD6;stroke-miterlimit:10;" d="M29.805,11.884
						c3.402,4.854,1.835,12.401-3.499,16.857c-5.333,4.458-12.413,4.135-15.814-0.718c-3.4-4.854-1.834-12.401,3.499-16.858
						C19.324,6.708,26.405,7.03,29.805,11.884z"/>
					<path id="XMLID_157_" style="clip-path:url(#XMLID_3_);fill:#00BDD6;stroke:#00BDD6;stroke-miterlimit:10;" d="M29.78,11.906
						c3.392,4.841,1.829,12.368-3.489,16.813c-5.32,4.445-12.381,4.124-15.773-0.717c-3.392-4.841-1.83-12.368,3.49-16.813
						C19.325,6.744,26.388,7.064,29.78,11.906z"/>
					<path id="XMLID_156_" style="clip-path:url(#XMLID_3_);fill:#00BDD6;stroke:#00BDD6;stroke-miterlimit:10;" d="M29.754,11.927
						c3.383,4.828,1.825,12.335-3.48,16.767c-5.305,4.434-12.348,4.114-15.73-0.715c-3.384-4.828-1.825-12.335,3.479-16.769
						C19.328,6.778,26.371,7.099,29.754,11.927z"/>
					<path id="XMLID_155_" style="clip-path:url(#XMLID_3_);fill:#00BDD6;stroke:#00BDD6;stroke-miterlimit:10;" d="M29.728,11.948
						c3.374,4.815,1.821,12.303-3.471,16.724c-5.291,4.421-12.314,4.102-15.689-0.713c-3.374-4.815-1.819-12.303,3.471-16.725
						C19.33,6.813,26.354,7.133,29.728,11.948z"/>
					<path id="XMLID_154_" style="clip-path:url(#XMLID_3_);fill:#00BDD6;stroke:#00BDD6;stroke-miterlimit:10;" d="M29.703,11.97
						c3.364,4.803,1.815,12.27-3.462,16.68c-5.277,4.409-12.283,4.09-15.647-0.712c-3.365-4.803-1.815-12.27,3.462-16.679
						C19.332,6.85,26.337,7.167,29.703,11.97z"/>
					<path id="XMLID_153_" style="clip-path:url(#XMLID_3_);fill:#00BDD6;stroke:#00BDD6;stroke-miterlimit:10;" d="M29.678,11.992
						c3.356,4.789,1.809,12.236-3.453,16.634c-5.262,4.397-12.249,4.079-15.604-0.71c-3.355-4.79-1.811-12.237,3.452-16.635
						C19.335,6.884,26.321,7.202,29.678,11.992z"/>
					<path id="XMLID_152_" style="clip-path:url(#XMLID_3_);fill:#00BDD6;stroke:#00BDD6;stroke-miterlimit:10;" d="M29.651,12.012
						c3.347,4.777,1.806,12.205-3.443,16.591c-5.248,4.385-12.215,4.069-15.563-0.708C7.299,23.118,8.84,15.69,14.088,11.305
						C19.337,6.919,26.305,7.235,29.651,12.012z"/>
					<path id="XMLID_151_" style="clip-path:url(#XMLID_3_);fill:#00BDD6;stroke:#00BDD6;stroke-miterlimit:10;" d="M29.625,12.034
						c3.338,4.763,1.801,12.17-3.433,16.545c-5.234,4.374-12.183,4.057-15.521-0.706c-3.338-4.764-1.8-12.171,3.434-16.546
						C19.339,6.955,26.289,7.27,29.625,12.034z"/>
					<path id="XMLID_150_" style="clip-path:url(#XMLID_3_);fill:#00BDD6;stroke:#00BDD6;stroke-miterlimit:10;" d="M29.601,12.056
						c3.328,4.751,1.795,12.138-3.425,16.5c-5.22,4.362-12.15,4.046-15.478-0.704c-3.33-4.751-1.797-12.138,3.424-16.5
						C19.341,6.989,26.271,7.305,29.601,12.056z"/>
					<path id="XMLID_149_" style="clip-path:url(#XMLID_3_);fill:#00BDD6;stroke:#00BDD6;stroke-miterlimit:10;" d="M29.575,12.077
						c3.32,4.738,1.79,12.106-3.416,16.456c-5.206,4.35-12.117,4.036-15.436-0.703c-3.319-4.738-1.791-12.105,3.415-16.455
						S26.254,7.339,29.575,12.077z"/>
					<path id="XMLID_148_" style="clip-path:url(#XMLID_3_);fill:#00BDD6;stroke:#00BDD6;stroke-miterlimit:10;" d="M29.549,12.098
						c3.311,4.725,1.786,12.073-3.406,16.411c-5.192,4.338-12.084,4.025-15.395-0.699c-3.311-4.725-1.786-12.073,3.406-16.411
						S26.238,7.373,29.549,12.098z"/>
					<path id="XMLID_147_" style="clip-path:url(#XMLID_3_);fill:#00BDD6;stroke:#00BDD6;stroke-miterlimit:10;" d="M29.524,12.12
						c3.301,4.712,1.781,12.04-3.397,16.366c-5.177,4.327-12.05,4.014-15.353-0.699c-3.302-4.712-1.78-12.04,3.397-16.366
						C19.348,7.095,26.222,7.407,29.524,12.12z"/>
					<path id="XMLID_146_" style="clip-path:url(#XMLID_3_);fill:#00BDD6;stroke:#00BDD6;stroke-miterlimit:10;" d="M29.499,12.141
						c3.292,4.7,1.775,12.006-3.388,16.322c-5.164,4.314-12.019,4.003-15.311-0.696c-3.293-4.7-1.776-12.007,3.387-16.322
						C19.35,7.13,26.205,7.442,29.499,12.141z"/>
					<path id="XMLID_145_" style="clip-path:url(#XMLID_3_);fill:#00BDD6;stroke:#00BDD6;stroke-miterlimit:10;" d="M29.472,12.162
						c3.284,4.687,1.771,11.974-3.378,16.277c-5.148,4.302-11.986,3.992-15.269-0.695c-3.283-4.686-1.772-11.973,3.378-16.276
						C19.353,7.165,26.189,7.476,29.472,12.162z"/>
					<path id="XMLID_144_" style="clip-path:url(#XMLID_3_);fill:#00BDD6;stroke:#00BDD6;stroke-miterlimit:10;" d="M29.446,12.183
						c3.275,4.674,1.767,11.942-3.368,16.233c-5.136,4.291-11.953,3.981-15.228-0.692c-3.274-4.674-1.766-11.942,3.37-16.233
						C19.356,7.2,26.171,7.51,29.446,12.183z"/>
					<path id="XMLID_143_" style="clip-path:url(#XMLID_3_);fill:#00BDD6;stroke:#00BDD6;stroke-miterlimit:10;" d="M29.421,12.206
						c3.265,4.66,1.762,11.908-3.36,16.187c-5.12,4.279-11.919,3.969-15.184-0.691c-3.267-4.66-1.762-11.908,3.359-16.187
						C19.357,7.235,26.155,7.544,29.421,12.206z"/>
					<path id="XMLID_142_" style="clip-path:url(#XMLID_3_);fill:#00BDD6;stroke:#00BDD6;stroke-miterlimit:10;" d="M29.395,12.226
						c3.257,4.649,1.757,11.876-3.351,16.143c-5.106,4.268-11.885,3.96-15.143-0.689c-3.257-4.648-1.757-11.875,3.35-16.142
						C19.359,7.27,26.139,7.578,29.395,12.226z"/>
					<path id="XMLID_141_" style="clip-path:url(#XMLID_3_);fill:#00BDD6;stroke:#00BDD6;stroke-miterlimit:10;" d="M29.37,12.248
						c3.248,4.634,1.752,11.842-3.341,16.097c-5.093,4.257-11.854,3.949-15.102-0.686c-3.247-4.636-1.752-11.843,3.342-16.098
						C19.361,7.305,26.122,7.613,29.37,12.248z"/>
					<path id="XMLID_140_" style="clip-path:url(#XMLID_3_);fill:#00BDD6;stroke:#00BDD6;stroke-miterlimit:10;" d="M29.344,12.269
						c3.239,4.622,1.748,11.809-3.331,16.053c-5.079,4.244-11.822,3.937-15.06-0.685c-3.238-4.622-1.747-11.809,3.332-16.053
						C19.363,7.341,26.105,7.647,29.344,12.269z"/>
					<path id="XMLID_139_" style="clip-path:url(#XMLID_3_);fill:#00BDD6;stroke:#00BDD6;stroke-miterlimit:10;" d="M29.319,12.291
						c3.229,4.609,1.742,11.777-3.323,16.008c-5.064,4.232-11.789,3.926-15.017-0.683C7.75,23.007,9.237,15.84,14.302,11.607
						C19.366,7.375,26.088,7.682,29.319,12.291z"/>
					<path id="XMLID_138_" style="clip-path:url(#XMLID_3_);fill:#00BDD6;stroke:#00BDD6;stroke-miterlimit:10;" d="M29.293,12.312
						c3.22,4.596,1.737,11.743-3.313,15.964c-5.051,4.221-11.755,3.916-14.976-0.681c-3.22-4.596-1.737-11.744,3.314-15.964
						C19.368,7.411,26.073,7.715,29.293,12.312z"/>
					<path id="XMLID_137_" style="clip-path:url(#XMLID_3_);fill:#00BDD6;stroke:#00BDD6;stroke-miterlimit:10;" d="M29.267,12.333
						c3.211,4.584,1.732,11.711-3.304,15.92c-5.035,4.208-11.722,3.904-14.934-0.679c-3.211-4.584-1.732-11.711,3.304-15.92
						C19.37,7.446,26.056,7.75,29.267,12.333z"/>
					<path id="XMLID_136_" style="clip-path:url(#XMLID_3_);fill:#00BDD6;stroke:#00BDD6;stroke-miterlimit:10;" d="M29.242,12.355
						c3.202,4.571,1.727,11.678-3.295,15.875c-5.022,4.196-11.689,3.893-14.891-0.678c-3.202-4.571-1.727-11.678,3.294-15.875
						C19.372,7.481,26.039,7.784,29.242,12.355z"/>
					<path id="XMLID_135_" style="clip-path:url(#XMLID_3_);fill:#00BDD6;stroke:#00BDD6;stroke-miterlimit:10;" d="M29.216,12.377
						c3.193,4.558,1.723,11.644-3.284,15.829c-5.008,4.186-11.658,3.883-14.85-0.675c-3.193-4.558-1.722-11.645,3.285-15.83
						C19.374,7.516,26.022,7.819,29.216,12.377z"/>
					<path id="XMLID_134_" style="clip-path:url(#XMLID_3_);fill:#00BDD6;stroke:#00BDD6;stroke-miterlimit:10;" d="M29.19,12.397
						c3.185,4.546,1.719,11.613-3.275,15.786c-4.994,4.172-11.624,3.87-14.809-0.674c-3.184-4.545-1.717-11.612,3.277-15.785
						C19.376,7.551,26.006,7.852,29.19,12.397z"/>
					<path id="XMLID_133_" style="clip-path:url(#XMLID_3_);fill:#00BDD6;stroke:#00BDD6;stroke-miterlimit:10;" d="M29.165,12.419
						c3.175,4.532,1.712,11.579-3.267,15.74c-4.98,4.162-11.59,3.861-14.766-0.671c-3.175-4.532-1.713-11.579,3.267-15.741
						C19.378,7.586,25.99,7.887,29.165,12.419z"/>
					<path id="XMLID_132_" style="clip-path:url(#XMLID_3_);fill:#00BDD6;stroke:#00BDD6;stroke-miterlimit:10;" d="M29.14,12.441
						c3.166,4.518,1.708,11.546-3.257,15.696c-4.965,4.15-11.558,3.849-14.723-0.67c-3.167-4.519-1.709-11.546,3.256-15.696
						C19.38,7.621,25.973,7.921,29.14,12.441z"/>
					<path id="XMLID_131_" style="clip-path:url(#XMLID_3_);fill:#00BDD6;stroke:#00BDD6;stroke-miterlimit:10;" d="M29.114,12.462
						c3.157,4.506,1.704,11.514-3.247,15.651c-4.952,4.138-11.526,3.839-14.683-0.668c-3.157-4.506-1.703-11.513,3.248-15.652
						C19.383,7.657,25.956,7.955,29.114,12.462z"/>
					<path id="XMLID_130_" style="clip-path:url(#XMLID_3_);fill:#00BDD6;stroke:#00BDD6;stroke-miterlimit:10;" d="M29.088,12.484
						c3.148,4.493,1.699,11.48-3.239,15.606c-4.936,4.125-11.491,3.828-14.64-0.666c-3.148-4.493-1.698-11.481,3.239-15.606
						C19.385,7.691,25.939,7.991,29.088,12.484z"/>
					<path id="XMLID_129_" style="clip-path:url(#XMLID_3_);fill:#00BDD6;stroke:#00BDD6;stroke-miterlimit:10;" d="M29.063,12.505
						c3.139,4.48,1.692,11.448-3.23,15.562c-4.923,4.114-11.459,3.817-14.598-0.664c-3.14-4.48-1.694-11.448,3.229-15.561
						C19.388,7.727,25.923,8.024,29.063,12.505z"/>
					<path id="XMLID_128_" style="clip-path:url(#XMLID_3_);fill:#00BDD6;stroke:#00BDD6;stroke-miterlimit:10;" d="M29.038,12.526
						c3.13,4.467,1.687,11.415-3.22,15.516c-4.909,4.103-11.427,3.806-14.557-0.661c-3.13-4.468-1.689-11.415,3.22-15.517
						C19.389,7.762,25.906,8.058,29.038,12.526z"/>
					<path id="XMLID_127_" style="clip-path:url(#XMLID_3_);fill:#00BDD6;stroke:#00BDD6;stroke-miterlimit:10;" d="M29.01,12.547
						c3.122,4.456,1.685,11.382-3.21,15.473c-4.895,4.09-11.393,3.794-14.515-0.66c-3.121-4.455-1.682-11.383,3.211-15.472
						C19.392,7.797,25.89,8.092,29.01,12.547z"/>
					<path id="XMLID_126_" style="clip-path:url(#XMLID_3_);fill:#00BDD6;stroke:#00BDD6;stroke-miterlimit:10;" d="M28.986,12.569
						c3.112,4.442,1.679,11.349-3.202,15.427c-4.881,4.079-11.36,3.785-14.473-0.658c-3.112-4.442-1.679-11.348,3.202-15.427
						C19.394,7.833,25.873,8.127,28.986,12.569z"/>
					<path id="XMLID_125_" style="clip-path:url(#XMLID_3_);fill:#00BDD6;stroke:#00BDD6;stroke-miterlimit:10;" d="M28.961,12.59
						c3.102,4.429,1.673,11.317-3.193,15.383c-4.867,4.067-11.328,3.772-14.43-0.656C8.233,22.888,9.663,16,14.53,11.934
						C19.395,7.867,25.856,8.162,28.961,12.59z"/>
					<path id="XMLID_124_" style="clip-path:url(#XMLID_3_);fill:#00BDD6;stroke:#00BDD6;stroke-miterlimit:10;" d="M28.935,12.611
						c3.094,4.416,1.669,11.284-3.184,15.338c-4.852,4.055-11.294,3.762-14.388-0.654c-3.094-4.416-1.669-11.283,3.183-15.338
						C19.398,7.903,25.841,8.196,28.935,12.611z"/>
					<path id="XMLID_123_" style="clip-path:url(#XMLID_3_);fill:#00BDD6;stroke:#00BDD6;stroke-miterlimit:10;" d="M28.908,12.634
						c3.086,4.403,1.665,11.249-3.174,15.292c-4.838,4.042-11.261,3.75-14.347-0.653c-3.084-4.404-1.663-11.25,3.174-15.292
						C19.4,7.938,25.823,8.23,28.908,12.634z"/>
					<path id="XMLID_122_" style="clip-path:url(#XMLID_3_);fill:#00BDD6;stroke:#00BDD6;stroke-miterlimit:10;" d="M28.883,12.654
						c3.076,4.391,1.659,11.217-3.164,15.248c-4.824,4.031-11.229,3.741-14.306-0.65c-3.076-4.391-1.659-11.218,3.166-15.249
						C19.403,7.973,25.807,8.264,28.883,12.654z"/>
					<path id="XMLID_121_" style="clip-path:url(#XMLID_3_);fill:#00BDD6;stroke:#00BDD6;stroke-miterlimit:10;" d="M28.858,12.676
						c3.066,4.378,1.653,11.185-3.156,15.204c-4.809,4.019-11.195,3.729-14.263-0.648c-3.068-4.378-1.655-11.184,3.156-15.204
						C19.406,8.008,25.79,8.298,28.858,12.676z"/>
					<path id="XMLID_120_" style="clip-path:url(#XMLID_3_);fill:#00BDD6;stroke:#00BDD6;stroke-miterlimit:10;" d="M28.831,12.697
						c3.059,4.364,1.65,11.152-3.146,15.16c-4.795,4.007-11.163,3.718-14.221-0.647c-3.058-4.365-1.649-11.152,3.146-15.159
						C19.407,8.043,25.774,8.333,28.831,12.697z"/>
					<path id="XMLID_119_" style="clip-path:url(#XMLID_3_);fill:#00BDD6;stroke:#00BDD6;stroke-miterlimit:10;" d="M28.806,12.719
						c3.05,4.351,1.646,11.118-3.136,15.115c-4.782,3.996-11.13,3.707-14.18-0.646c-3.049-4.351-1.644-11.118,3.137-15.114
						C19.409,8.078,25.757,8.367,28.806,12.719z"/>
					<path id="XMLID_118_" style="clip-path:url(#XMLID_3_);fill:#00BDD6;stroke:#00BDD6;stroke-miterlimit:10;" d="M28.781,12.74
						c3.04,4.339,1.64,11.087-3.128,15.07c-4.768,3.984-11.096,3.696-14.136-0.643c-3.041-4.339-1.641-11.086,3.127-15.07
						C19.411,8.113,25.742,8.401,28.781,12.74z"/>
					<path id="XMLID_117_" style="clip-path:url(#XMLID_3_);fill:#00BDD6;stroke:#00BDD6;stroke-miterlimit:10;" d="M28.756,12.762
						c3.03,4.326,1.635,11.053-3.119,15.025c-4.753,3.972-11.063,3.684-14.095-0.641C8.51,22.82,9.907,16.092,14.66,12.12
						C19.413,8.148,25.724,8.436,28.756,12.762z"/>
					<path id="XMLID_116_" style="clip-path:url(#XMLID_3_);fill:#00BDD6;stroke:#00BDD6;stroke-miterlimit:10;" d="M28.73,12.783
						c3.022,4.313,1.63,11.02-3.109,14.98c-4.739,3.961-11.031,3.674-14.054-0.639c-3.022-4.313-1.63-11.02,3.109-14.981
						C19.416,8.183,25.707,8.47,28.73,12.783z"/>
					<path id="XMLID_115_" style="clip-path:url(#XMLID_3_);fill:#00BDD6;stroke:#00BDD6;stroke-miterlimit:10;" d="M28.704,12.804
						c3.014,4.301,1.626,10.988-3.099,14.937c-4.726,3.948-10.999,3.663-14.012-0.638c-3.013-4.3-1.624-10.987,3.101-14.936
						C19.418,8.219,25.69,8.504,28.704,12.804z"/>
					<path id="XMLID_114_" style="clip-path:url(#XMLID_3_);fill:#00BDD6;stroke:#00BDD6;stroke-miterlimit:10;" d="M28.679,12.826
						c3.004,4.288,1.62,10.954-3.092,14.891c-4.709,3.936-10.964,3.652-13.968-0.636c-3.004-4.287-1.621-10.955,3.09-14.891
						C19.42,8.253,25.674,8.538,28.679,12.826z"/>
					<path id="XMLID_113_" style="clip-path:url(#XMLID_3_);fill:#00BDD6;stroke:#00BDD6;stroke-miterlimit:10;" d="M28.653,12.847
						c2.994,4.275,1.615,10.921-3.081,14.847c-4.696,3.925-10.932,3.641-13.928-0.634c-2.996-4.275-1.616-10.921,3.081-14.846
						C19.423,8.288,25.658,8.573,28.653,12.847z"/>
					<path id="XMLID_112_" style="clip-path:url(#XMLID_3_);fill:#00BDD6;stroke:#00BDD6;stroke-miterlimit:10;" d="M28.627,12.869
						c2.985,4.262,1.611,10.888-3.071,14.801c-4.683,3.913-10.899,3.63-13.885-0.631c-2.987-4.262-1.611-10.889,3.072-14.802
						C19.424,8.324,25.642,8.606,28.627,12.869z"/>
					<path id="XMLID_111_" style="clip-path:url(#XMLID_3_);fill:#00BDD6;stroke:#00BDD6;stroke-miterlimit:10;" d="M28.602,12.89
						c2.976,4.249,1.606,10.856-3.063,14.757s-10.866,3.619-13.843-0.629c-2.978-4.248-1.606-10.856,3.062-14.757
						C19.427,8.359,25.625,8.641,28.602,12.89z"/>
					<path id="XMLID_110_" style="clip-path:url(#XMLID_3_);fill:#00BDD6;stroke:#00BDD6;stroke-miterlimit:10;" d="M28.576,12.911
						c2.968,4.237,1.601,10.823-3.054,14.713c-4.655,3.89-10.834,3.608-13.801-0.628c-2.968-4.237-1.601-10.823,3.054-14.713
						C19.428,8.395,25.607,8.675,28.576,12.911z"/>
					<path id="XMLID_109_" style="clip-path:url(#XMLID_3_);fill:#00BDD6;stroke:#00BDD6;stroke-miterlimit:10;" d="M28.55,12.933
						c2.959,4.222,1.596,10.789-3.044,14.667c-4.641,3.878-10.801,3.598-13.76-0.625c-2.959-4.224-1.596-10.79,3.045-14.668
						C19.43,8.429,25.591,8.709,28.55,12.933z"/>
					<path id="XMLID_108_" style="clip-path:url(#XMLID_3_);fill:#00BDD6;stroke:#00BDD6;stroke-miterlimit:10;" d="M28.525,12.954
						c2.949,4.21,1.591,10.757-3.035,14.623c-4.626,3.866-10.767,3.586-13.717-0.625c-2.95-4.209-1.591-10.756,3.035-14.622
						C19.433,8.465,25.576,8.744,28.525,12.954z"/>
					<path id="XMLID_107_" style="clip-path:url(#XMLID_3_);fill:#00BDD6;stroke:#00BDD6;stroke-miterlimit:10;" d="M28.5,12.975
						c2.941,4.198,1.587,10.725-3.026,14.579c-4.612,3.854-10.735,3.576-13.675-0.621c-2.942-4.198-1.587-10.725,3.024-14.579
						C19.435,8.499,25.558,8.778,28.5,12.975z"/>
					<path id="XMLID_106_" style="clip-path:url(#XMLID_3_);fill:#00BDD6;stroke:#00BDD6;stroke-miterlimit:10;" d="M28.474,12.997
						c2.932,4.184,1.581,10.692-3.016,14.533c-4.597,3.842-10.702,3.564-13.634-0.62c-2.931-4.184-1.582-10.692,3.017-14.533
						C19.438,8.535,25.541,8.813,28.474,12.997z"/>
					<path id="XMLID_105_" style="clip-path:url(#XMLID_3_);fill:#00BDD6;stroke:#00BDD6;stroke-miterlimit:10;" d="M28.448,13.019
						c2.923,4.171,1.577,10.659-3.007,14.489c-4.583,3.83-10.669,3.554-13.592-0.618c-2.923-4.171-1.577-10.658,3.008-14.489
						C19.44,8.57,25.525,8.847,28.448,13.019z"/>
					<path id="XMLID_101_" style="clip-path:url(#XMLID_3_);fill:#00BDD6;stroke:#00BDD6;stroke-miterlimit:10;" d="M28.423,13.039
						c2.913,4.159,1.572,10.626-2.998,14.444c-4.569,3.819-10.635,3.543-13.549-0.616c-2.915-4.159-1.573-10.625,2.997-14.444
						C19.442,8.605,25.508,8.881,28.423,13.039z"/>
					<path id="XMLID_100_" style="clip-path:url(#XMLID_3_);fill:#00BDD6;stroke:#00BDD6;stroke-miterlimit:10;" d="M28.396,13.061
						c2.906,4.146,1.568,10.593-2.988,14.4c-4.555,3.807-10.603,3.531-13.508-0.614c-2.905-4.146-1.567-10.593,2.988-14.399
						C19.444,8.64,25.492,8.915,28.396,13.061z"/>
					<path id="XMLID_94_" style="clip-path:url(#XMLID_3_);fill:#00BDD6;stroke:#00BDD6;stroke-miterlimit:10;" d="M28.37,13.083
						c2.897,4.133,1.563,10.56-2.978,14.355c-4.542,3.794-10.571,3.52-13.467-0.613c-2.895-4.133-1.562-10.56,2.98-14.355
						C19.446,8.675,25.475,8.949,28.37,13.083z"/>
					<path id="XMLID_93_" style="clip-path:url(#XMLID_3_);fill:#00BDD6;stroke:#00BDD6;stroke-miterlimit:10;" d="M28.346,13.104
						c2.887,4.12,1.556,10.527-2.97,14.31c-4.528,3.783-10.537,3.509-13.424-0.61c-2.886-4.12-1.558-10.527,2.97-14.31
						C19.448,8.71,25.459,8.983,28.346,13.104z"/>
					<path id="XMLID_92_" style="clip-path:url(#XMLID_3_);fill:#00BDD6;stroke:#00BDD6;stroke-miterlimit:10;" d="M28.32,13.125
						c2.877,4.108,1.553,10.495-2.961,14.266c-4.513,3.771-10.505,3.498-13.382-0.609c-2.879-4.107-1.553-10.494,2.961-14.266
						C19.451,8.745,25.442,9.018,28.32,13.125z"/>
					<path id="XMLID_91_" style="clip-path:url(#XMLID_3_);fill:#00BDD6;stroke:#00BDD6;stroke-miterlimit:10;" d="M28.294,13.147
						c2.869,4.093,1.548,10.461-2.951,14.22c-4.5,3.759-10.472,3.488-13.341-0.607c-2.869-4.094-1.547-10.461,2.951-14.221
						C19.453,8.781,25.426,9.052,28.294,13.147z"/>
					<path id="XMLID_90_" style="clip-path:url(#XMLID_3_);fill:#00BDD6;stroke:#00BDD6;stroke-miterlimit:10;" d="M28.269,13.168
						c2.86,4.082,1.543,10.428-2.943,14.176c-4.483,3.748-10.437,3.476-13.298-0.605c-2.859-4.083-1.542-10.429,2.943-14.176
						C19.456,8.815,25.409,9.086,28.269,13.168z"/>
					<path id="XMLID_89_" style="clip-path:url(#XMLID_3_);fill:#00BDD6;stroke:#00BDD6;stroke-miterlimit:10;" d="M28.243,13.189
						c2.851,4.069,1.537,10.396-2.933,14.132c-4.47,3.736-10.405,3.466-13.257-0.603c-2.85-4.069-1.537-10.395,2.933-14.131
						C19.458,8.85,25.392,9.121,28.243,13.189z"/>
					<path id="XMLID_88_" style="clip-path:url(#XMLID_3_);fill:#00BDD6;stroke:#00BDD6;stroke-miterlimit:10;" d="M28.217,13.211
						c2.842,4.055,1.533,10.361-2.922,14.086c-4.457,3.724-10.374,3.455-13.215-0.602c-2.842-4.055-1.533-10.361,2.923-14.086
						C19.46,8.886,25.376,9.155,28.217,13.211z"/>
					<path id="XMLID_87_" style="clip-path:url(#XMLID_3_);fill:#00BDD6;stroke:#00BDD6;stroke-miterlimit:10;" d="M28.192,13.232
						c2.833,4.043,1.529,10.329-2.913,14.042c-4.443,3.712-10.341,3.444-13.173-0.599c-2.833-4.043-1.528-10.329,2.914-14.042
						C19.461,8.92,25.359,9.189,28.192,13.232z"/>
					<path id="XMLID_86_" style="clip-path:url(#XMLID_3_);fill:#00BDD6;stroke:#00BDD6;stroke-miterlimit:10;" d="M28.166,13.253
						c2.824,4.031,1.523,10.297-2.905,13.997c-4.428,3.701-10.307,3.433-13.13-0.597c-2.824-4.03-1.524-10.297,2.905-13.997
						C19.463,8.956,25.343,9.224,28.166,13.253z"/>
					<path id="XMLID_85_" style="clip-path:url(#XMLID_3_);fill:#00BDD6;stroke:#00BDD6;stroke-miterlimit:10;" d="M28.142,13.275
						c2.814,4.017,1.518,10.264-2.896,13.953c-4.414,3.688-10.274,3.422-13.089-0.596c-2.814-4.017-1.519-10.264,2.896-13.952
						C19.466,8.991,25.327,9.258,28.142,13.275z"/>
					<path id="XMLID_84_" style="clip-path:url(#XMLID_3_);fill:#00BDD6;stroke:#00BDD6;stroke-miterlimit:10;" d="M28.116,13.296
						c2.805,4.004,1.513,10.231-2.887,13.908c-4.399,3.676-10.241,3.411-13.047-0.594c-2.806-4.004-1.514-10.231,2.886-13.908
						C19.468,9.026,25.31,9.292,28.116,13.296z"/>
					<path id="XMLID_83_" style="clip-path:url(#XMLID_3_);fill:#00BDD6;stroke:#00BDD6;stroke-miterlimit:10;" d="M28.09,13.318
						c2.796,3.992,1.509,10.197-2.878,13.863c-4.384,3.664-10.208,3.4-13.005-0.591c-2.796-3.992-1.507-10.199,2.877-13.863
						C19.471,9.061,25.292,9.326,28.09,13.318z"/>
					<path id="XMLID_82_" style="clip-path:url(#XMLID_3_);fill:#00BDD6;stroke:#00BDD6;stroke-miterlimit:10;" d="M28.064,13.339
						c2.787,3.979,1.504,10.165-2.867,13.818c-4.372,3.653-10.177,3.39-12.964-0.59c-2.787-3.979-1.504-10.165,2.869-13.818
						C19.473,9.097,25.275,9.361,28.064,13.339z"/>
					<path id="XMLID_81_" style="clip-path:url(#XMLID_3_);fill:#00BDD6;stroke:#00BDD6;stroke-miterlimit:10;" d="M28.039,13.361
						c2.778,3.966,1.497,10.133-2.859,13.773c-4.357,3.642-10.142,3.379-12.921-0.588c-2.778-3.966-1.499-10.132,2.859-13.773
						C19.475,9.131,25.259,9.394,28.039,13.361z"/>
					<path id="XMLID_80_" style="clip-path:url(#XMLID_3_);fill:#00BDD6;stroke:#00BDD6;stroke-miterlimit:10;" d="M28.012,13.382
						c2.77,3.952,1.495,10.099-2.849,13.729c-4.343,3.629-10.109,3.367-12.878-0.586c-2.77-3.953-1.494-10.1,2.849-13.729
						C19.477,9.166,25.244,9.429,28.012,13.382z"/>
					<path id="XMLID_79_" style="clip-path:url(#XMLID_3_);fill:#00BDD6;stroke:#00BDD6;stroke-miterlimit:10;" d="M27.987,13.404
						c2.76,3.94,1.49,10.066-2.84,13.683c-4.329,3.618-10.076,3.357-12.837-0.583c-2.761-3.94-1.489-10.067,2.84-13.684
						C19.478,9.202,25.227,9.463,27.987,13.404z"/>
					<path id="XMLID_78_" style="clip-path:url(#XMLID_3_);fill:#00BDD6;stroke:#00BDD6;stroke-miterlimit:10;" d="M27.962,13.424
						c2.752,3.928,1.484,10.035-2.831,13.64c-4.315,3.606-10.044,3.345-12.794-0.582c-2.752-3.927-1.485-10.034,2.83-13.64
						C19.481,9.236,25.21,9.498,27.962,13.424z"/>
					<path id="XMLID_77_" style="clip-path:url(#XMLID_3_);fill:#00BDD6;stroke:#00BDD6;stroke-miterlimit:10;" d="M27.936,13.446
						c2.744,3.914,1.479,10.001-2.822,13.595c-4.301,3.594-10.011,3.334-12.753-0.581c-2.742-3.913-1.479-10,2.821-13.594
						C19.483,9.273,25.193,9.532,27.936,13.446z"/>
					<path id="XMLID_76_" style="clip-path:url(#XMLID_3_);fill:#00BDD6;stroke:#00BDD6;stroke-miterlimit:10;" d="M27.91,13.467
						c2.734,3.902,1.475,9.968-2.812,13.55c-4.287,3.582-9.977,3.323-12.712-0.578c-2.732-3.902-1.474-9.968,2.813-13.551
						C19.485,9.307,25.176,9.566,27.91,13.467z"/>
					<path id="XMLID_75_" style="clip-path:url(#XMLID_3_);fill:#00BDD6;stroke:#00BDD6;stroke-miterlimit:10;" d="M27.885,13.489
						c2.724,3.889,1.47,9.936-2.802,13.505c-4.273,3.57-9.945,3.312-12.67-0.576c-2.724-3.889-1.469-9.936,2.804-13.505
						C19.489,9.343,25.161,9.601,27.885,13.489z"/>
					<path id="XMLID_74_" style="clip-path:url(#XMLID_3_);fill:#00BDD6;stroke:#00BDD6;stroke-miterlimit:10;" d="M27.86,13.51
						c2.714,3.876,1.464,9.903-2.795,13.461c-4.257,3.558-9.911,3.301-12.627-0.575c-2.716-3.875-1.465-9.902,2.793-13.461
						C19.49,9.377,25.143,9.634,27.86,13.51z"/>
					<path id="XMLID_73_" style="clip-path:url(#XMLID_3_);fill:#00BDD6;stroke:#00BDD6;stroke-miterlimit:10;" d="M27.834,13.531
						c2.706,3.863,1.46,9.87-2.785,13.416c-4.244,3.546-9.879,3.29-12.586-0.572c-2.706-3.863-1.46-9.869,2.785-13.416
						C19.492,9.413,25.127,9.669,27.834,13.531z"/>
					<path id="XMLID_72_" style="clip-path:url(#XMLID_3_);fill:#00BDD6;stroke:#00BDD6;stroke-miterlimit:10;" d="M27.808,13.553
						c2.698,3.85,1.455,9.836-2.774,13.372c-4.231,3.534-9.847,3.279-12.544-0.571c-2.697-3.85-1.455-9.837,2.776-13.372
						C19.494,9.448,25.111,9.703,27.808,13.553z"/>
					<use xlink:href="#XMLID_71_"  style="overflow:visible;fill:none;stroke:#00BDD6;stroke-miterlimit:10;"/>
				</g>
			</g>
		</g>
		<g id="XMLID_64_">
			<path id="XMLID_67_" style="fill:#ECE09C;stroke:#ECE09C;stroke-miterlimit:10;" d="M28.241,13.342
				c-0.555-0.878-0.35-2.08,0.452-2.685c0.804-0.605,1.905-0.384,2.46,0.494c0.553,0.878,0.35,2.08-0.454,2.685
				C29.896,14.441,28.795,14.22,28.241,13.342z"/>
			<path id="XMLID_66_" style="fill:#ECE09C;stroke:#ECE09C;stroke-miterlimit:10;" d="M28.284,13.41
				c-0.531-0.84-0.335-1.991,0.434-2.571c0.77-0.578,1.823-0.368,2.354,0.474c0.53,0.84,0.336,1.989-0.434,2.569
				C29.869,14.461,28.814,14.251,28.284,13.41z"/>
			<path id="XMLID_65_" style="fill:#ECE09C;stroke:#ECE09C;stroke-miterlimit:10;" d="M28.284,13.41
				c-0.531-0.84-0.335-1.991,0.434-2.571c0.77-0.578,1.823-0.368,2.354,0.474c0.53,0.84,0.336,1.989-0.434,2.569
				C29.869,14.461,28.814,14.251,28.284,13.41z"/>
		</g>
		<g id="XMLID_60_">
			<path id="XMLID_63_" style="fill:#F16522;stroke:#F16522;stroke-miterlimit:10;" d="M28.969,21.304
				c-0.553-0.879-0.35-2.081,0.454-2.685c0.802-0.605,1.903-0.385,2.458,0.493c0.553,0.879,0.351,2.08-0.452,2.685
				C30.625,22.403,29.524,22.182,28.969,21.304z"/>
			<path id="XMLID_62_" style="fill:#F16522;stroke:#F16522;stroke-miterlimit:10;" d="M29.013,21.372
				c-0.531-0.841-0.336-1.991,0.434-2.57c0.77-0.58,1.823-0.368,2.354,0.472c0.531,0.841,0.336,1.991-0.434,2.572
				C30.597,22.423,29.543,22.212,29.013,21.372z"/>
			<path id="XMLID_61_" style="fill:#F16522;stroke:#F16522;stroke-miterlimit:10;" d="M29.013,21.372
				c-0.531-0.841-0.336-1.991,0.434-2.57c0.77-0.58,1.823-0.368,2.354,0.472c0.531,0.841,0.336,1.991-0.434,2.572
				C30.597,22.423,29.543,22.212,29.013,21.372z"/>
		</g>
		<g id="XMLID_56_">
			<path id="XMLID_59_" style="fill:#006837;stroke:#006837;stroke-miterlimit:10;" d="M24.121,28.301
				c-0.554-0.878-0.35-2.08,0.453-2.685c0.803-0.604,1.906-0.383,2.46,0.494c0.553,0.878,0.35,2.08-0.454,2.685
				C25.777,29.4,24.676,29.179,24.121,28.301z"/>
			<path id="XMLID_58_" style="fill:#006837;stroke:#006837;stroke-miterlimit:10;" d="M24.165,28.369
				c-0.531-0.84-0.335-1.991,0.434-2.57c0.769-0.579,1.822-0.368,2.353,0.473c0.531,0.84,0.337,1.99-0.433,2.569
				C25.748,29.422,24.696,29.211,24.165,28.369z"/>
			<path id="XMLID_57_" style="fill:#006837;stroke:#006837;stroke-miterlimit:10;" d="M24.165,28.369
				c-0.531-0.84-0.335-1.991,0.434-2.57c0.769-0.579,1.822-0.368,2.353,0.473c0.531,0.84,0.337,1.99-0.433,2.569
				C25.748,29.422,24.696,29.211,24.165,28.369z"/>
		</g>
		<g id="XMLID_52_">
			<path id="XMLID_55_" style="fill:#C35B26;stroke:#C35B26;stroke-miterlimit:10;" d="M21.936,9.377
				c-0.554-0.878-0.351-2.08,0.453-2.686c0.804-0.605,1.904-0.383,2.458,0.496c0.554,0.878,0.351,2.08-0.453,2.684
				C23.591,10.476,22.489,10.256,21.936,9.377z"/>
			<path id="XMLID_54_" style="fill:#C35B26;stroke:#C35B26;stroke-miterlimit:10;" d="M21.979,9.445
				c-0.531-0.839-0.335-1.991,0.434-2.57c0.77-0.58,1.824-0.368,2.354,0.473c0.529,0.841,0.336,1.991-0.435,2.57
				C23.563,10.498,22.509,10.286,21.979,9.445z"/>
			<path id="XMLID_53_" style="fill:#C35B26;stroke:#C35B26;stroke-miterlimit:10;" d="M21.979,9.445
				c-0.531-0.839-0.335-1.991,0.434-2.57c0.77-0.58,1.824-0.368,2.354,0.473c0.529,0.841,0.336,1.991-0.435,2.57
				C23.563,10.498,22.509,10.286,21.979,9.445z"/>
		</g>
		<g id="XMLID_48_">
			<path id="XMLID_51_" style="fill:#00BDD6;stroke:#00BDD6;stroke-miterlimit:10;" d="M14.762,11.427
				c-0.554-0.879-0.351-2.081,0.453-2.685c0.804-0.607,1.906-0.384,2.459,0.494c0.555,0.878,0.351,2.079-0.453,2.685
				C16.416,12.525,15.316,12.304,14.762,11.427z"/>
			<path id="XMLID_50_" style="fill:#00BDD6;stroke:#00BDD6;stroke-miterlimit:10;" d="M14.805,11.495
				c-0.531-0.841-0.335-1.992,0.434-2.571c0.769-0.58,1.823-0.369,2.353,0.473c0.53,0.839,0.336,1.99-0.433,2.568
				C16.389,12.546,15.336,12.334,14.805,11.495z"/>
			<path id="XMLID_49_" style="fill:#00BDD6;stroke:#00BDD6;stroke-miterlimit:10;" d="M14.805,11.495
				c-0.531-0.841-0.335-1.992,0.434-2.571c0.769-0.58,1.823-0.369,2.353,0.473c0.53,0.839,0.336,1.99-0.433,2.568
				C16.389,12.546,15.336,12.334,14.805,11.495z"/>
		</g>
		<g id="XMLID_44_">
			<path id="XMLID_47_" style="fill:#FCEE21;stroke:#FCEE21;stroke-miterlimit:10;" d="M9.243,16.584
				c-0.554-0.878-0.35-2.08,0.453-2.686c0.804-0.604,1.905-0.383,2.457,0.496c0.556,0.878,0.351,2.079-0.452,2.685
				C10.898,17.684,9.797,17.462,9.243,16.584z"/>
			<path id="XMLID_46_" style="fill:#FCEE21;stroke:#FCEE21;stroke-miterlimit:10;" d="M9.285,16.653
				c-0.53-0.841-0.335-1.992,0.434-2.571c0.769-0.579,1.824-0.367,2.354,0.473c0.529,0.839,0.334,1.991-0.434,2.569
				C10.871,17.704,9.816,17.493,9.285,16.653z"/>
			<path id="XMLID_45_" style="fill:#FCEE21;stroke:#FCEE21;stroke-miterlimit:10;" d="M9.285,16.653
				c-0.53-0.841-0.335-1.992,0.434-2.571c0.769-0.579,1.824-0.367,2.354,0.473c0.529,0.839,0.334,1.991-0.434,2.569
				C10.871,17.704,9.816,17.493,9.285,16.653z"/>
		</g>
		<g id="XMLID_40_">
			<path id="XMLID_43_" style="stroke:#000000;stroke-miterlimit:10;" d="M7.325,23.656c-0.555-0.878-0.35-2.081,0.453-2.686
				c0.804-0.605,1.905-0.383,2.459,0.494c0.554,0.879,0.351,2.08-0.453,2.686C8.979,24.755,7.879,24.534,7.325,23.656z"/>
			<path id="XMLID_42_" style="stroke:#000000;stroke-miterlimit:10;" d="M7.368,23.723c-0.531-0.84-0.336-1.99,0.434-2.569
				c0.77-0.579,1.823-0.368,2.353,0.473s0.336,1.991-0.433,2.57C8.953,24.775,7.898,24.564,7.368,23.723z"/>
			<path id="XMLID_41_" style="stroke:#000000;stroke-miterlimit:10;" d="M7.368,23.723c-0.531-0.84-0.336-1.99,0.434-2.569
				c0.77-0.579,1.823-0.368,2.353,0.473s0.336,1.991-0.433,2.57C8.953,24.775,7.898,24.564,7.368,23.723z"/>
		</g>
	</g>
</g>
</svg>
