<?xml version="1.0" encoding="iso-8859-1"?>
<!-- Generator: Adobe Illustrator 19.0.0, SVG Export Plug-In . SVG Version: 6.00 Build 0)  -->
<svg version="1.1" id="Layer_1" xmlns="http://www.w3.org/2000/svg" xmlns:xlink="http://www.w3.org/1999/xlink" x="0px" y="0px"
	 viewBox="0 0 200 200" style="enable-background:new 0 0 200 200;" xml:space="preserve">
<g>
	<defs>
		<rect id="XMLID_1_" width="200" height="200"/>
	</defs>
	<clipPath id="XMLID_133_">
		<use xlink:href="#XMLID_1_"  style="overflow:visible;"/>
	</clipPath>
	<g style="clip-path:url(#XMLID_133_);">
		<rect id="XMLID_39_" x="-50.012" style="fill:#8DAAA6;" width="300" height="200"/>
		<g>
			<g>
				<g>
					<polygon id="XMLID_38_" style="fill:#525355;" points="235.184,85.508 187.577,148.511 250.012,151.325 250.012,101.412 					
						"/>
					<line id="XMLID_37_" style="fill:#525355;" x1="250.012" y1="101.412" x2="250.012" y2="151.325"/>
					<polygon id="XMLID_36_" style="fill:#EFF0F0;" points="235.184,85.508 220.497,104.677 226.473,102.322 225.46,107.29 
						231.942,103.538 235.184,107.29 238.425,102.322 249.567,114.477 250.012,111.564 250.012,101.412 					"/>
				</g>
				<polygon id="XMLID_35_" style="fill:#CFD1D2;" points="235.184,85.508 229.106,105.158 238.628,123.796 222.028,150.064 
					250.012,151.325 250.012,101.412 				"/>
				<line id="XMLID_34_" style="fill:#CFD1D2;" x1="250.012" y1="101.412" x2="250.012" y2="151.325"/>
			</g>
			<g>
				<polygon id="XMLID_33_" style="fill:#454647;" points="93.887,169.327 140.19,81.907 201.094,170.83 				"/>
				<polygon id="XMLID_32_" style="fill:#EFF0F0;" points="132.145,97.095 137.318,100.003 140.818,95.239 144.587,98.602 
					144.612,91.921 150.867,97.468 140.19,81.907 				"/>
				<path id="XMLID_31_" style="fill:#CFD1D2;" d="M147.491,152.517c0,0-10.735-26.149-10.197-26.149s8.819-10.03,8.819-10.03
					l-8.795-16.335l2.872-18.096l43.124,62.852L147.491,152.517z"/>
			</g>
			<g>
				<g>
					<polygon id="XMLID_30_" style="fill:#58595B;" points="138.442,158.083 191.782,59.928 243.084,156.244 					"/>
					<polygon id="XMLID_29_" style="fill:#EFF0F0;" points="178.308,84.723 176.633,93.863 186.732,88.018 191.782,93.863 
						196.832,86.123 214.19,101.998 191.782,59.928 					"/>
				</g>
				<polygon id="XMLID_28_" style="fill:#CFD1D2;" points="186.229,157.296 176.877,124.715 188.351,102.36 182.314,90.542 
					191.782,59.928 243.084,156.244 				"/>
			</g>
			<g>
				<g>
					<polygon id="XMLID_27_" style="fill:#4A4B4C;" points="-44.389,137.613 3.218,74.609 66.625,142.615 					"/>
					<polygon id="XMLID_26_" style="fill:#EFF0F0;" points="-11.469,93.779 -5.494,91.424 -6.506,96.392 -0.024,92.639 
						3.218,96.392 6.459,91.424 17.601,103.579 19.378,91.942 3.218,74.609 					"/>
				</g>
				<polygon id="XMLID_25_" style="fill:#CFD1D2;" points="-9.938,139.165 6.661,112.897 -2.86,94.26 3.218,74.609 66.625,142.615 
									"/>
			</g>
			<g>
				<polygon id="XMLID_24_" style="fill:#5D5E60;" points="-3.235,159.996 58.509,59.177 118.957,157.621 				"/>
				<polygon id="XMLID_23_" style="fill:#EFF0F0;" points="43.706,83.348 48.794,91.128 55.487,80.766 65.417,90.049 69.735,83.348 
					75.693,87.163 58.509,59.177 				"/>
				<polygon id="XMLID_22_" style="fill:#CFD1D2;" points="40.852,155.31 62.218,106.2 52.021,86.131 58.509,59.177 
					118.957,157.621 				"/>
			</g>
		</g>
		<path id="XMLID_21_" style="fill:#889D31;" d="M109.043,159.656c0,0,0.87-0.065,2.1-0.182v-1.84
			C109.771,158.908,109.043,159.656,109.043,159.656z"/>
		<path id="XMLID_20_" style="fill:#819838;" d="M249.988,116.897c-50.349-13.318-135.896,38.099-135.896,38.099
			s3.654,1.922,4.865,2.625c1.448,0.841-4.495,1.538-7.813,1.854v0.358l138.844,1.198
			C249.988,161.031,249.988,130.897,249.988,116.897z"/>
		<path id="XMLID_19_" style="fill:#889D31;" d="M111.144,159.475c3.319-0.316,9.262-1.013,7.813-1.854
			c-1.211-0.703-2.847-1.59-4.865-2.625c-1.181,1.022-2.169,1.916-2.948,2.639V159.475z"/>
		<path id="XMLID_18_" style="fill:#889D31;" d="M114.092,154.996c-0.906-0.465-1.892-0.96-2.948-1.482v4.121
			C111.923,156.911,112.911,156.018,114.092,154.996z"/>
		<path id="XMLID_17_" style="fill:#889D31;" d="M109.043,159.656c0,0,0.728-0.748,2.1-2.022v-4.121
			c-26.799-13.228-100.328-43.733-161.156-39.652c0,14.128,0,14.14,0,44.581l161.156,1.391v-0.358
			C109.914,159.592,109.043,159.656,109.043,159.656z"/>
		<path id="XMLID_16_" style="fill:#9DB225;" d="M-50.012,146.75C19.719,146.451,93.654,154,93.654,154h20.383
			c0,0,103.57-1.386,135.95,3c0,14,0,43,0,43h-300C-50.012,200-50.012,161.25-50.012,146.75z"/>
		<g>
			<path id="XMLID_15_" style="fill:#333333;" d="M93.654,154C79.217,165.75-7.988,190.079-50.012,191.066c0,5.184,0,8.934,0,8.934
				s256.362,0,275.962,0c-45.438-36.75-109.727-46.03-113.687-46.292C106.472,153.324,97.919,153.604,93.654,154z"/>
			<g>
				<path id="XMLID_14_" style="fill:#FCAD37;" d="M101.325,200c0,0,5.25-3.375,8.063-6.954c1.382,0,11.929,0,13.313,0
					c-0.375,5.204-1.438,6.954-1.438,6.954H101.325z"/>
				<path id="XMLID_13_" style="fill:#FCAD37;" d="M113.475,181.813c1.912,0,6.253,0,7.739,0c-0.429-3.802-2.001-7.688-2.001-7.688
					h-5.737C113.475,174.125,113.825,179.563,113.475,181.813z"/>
				<path id="XMLID_12_" style="fill:#FCAD37;" d="M111.387,165.688c0.781,0,3.406,0,4.281,0c1.167,1.306,2.563,4.281,2.563,4.281
					h-5.344C112.887,169.969,112.387,167.813,111.387,165.688z"/>
				<path id="XMLID_11_" style="fill:#FCAD37;" d="M109.668,161.031c0.594,0,2.073,0,2.886,0c0.778,0.717,1.333,2.156,1.333,2.156
					h-3.219C110.668,163.188,110.253,162.109,109.668,161.031z"/>
				<path id="XMLID_10_" style="fill:#FCAD37;" d="M108.137,158.438c0.719,0,1.62,0,2.261,0c0.453,0.453,0.875,1.219,0.875,1.219
					h-2.229C109.043,159.656,108.762,159.182,108.137,158.438z"/>
				<path id="XMLID_9_" style="fill:#FCAD37;" d="M106.893,156.109c0.449,0,0.93,0,1.331,0c0.375,0.336,0.951,1.219,0.951,1.219
					h-1.465C107.709,157.328,107.235,156.566,106.893,156.109z"/>
				<path id="XMLID_8_" style="fill:#FCAD37;" d="M106.004,154.578c0,0,0.32,0.388,0.461,0.672c0.156,0,0.704,0,0.891,0
					c-0.172-0.398-0.464-0.672-0.464-0.672H106.004z"/>
			</g>
			<path id="XMLID_7_" style="opacity:0.2;fill:#231F20;" d="M112.262,153.708c-3.834-0.254-8.876-0.217-13.085-0.048
				c0.277,0.015,0.551,0.031,0.818,0.048c3.961,0.262,68.25,9.542,113.687,46.292c6.083,0,10.332,0,12.268,0
				C180.512,163.25,116.223,153.97,112.262,153.708z"/>
		</g>
		<g style="opacity:0.8;">
			<g id="XMLID_84_">
				<path id="XMLID_89_" style="fill:#FEFEF4;" d="M28.328,51.906c-1.074,0-2.072,0.329-2.899,0.89
					c-0.853-3.476-3.988-6.055-7.726-6.055c-1.038,0-2.029,0.201-2.938,0.562c-1.762-3.941-5.714-6.689-10.311-6.689
					c-4.752,0-8.816,2.937-10.482,7.094c-1.41-0.877-3.073-1.385-4.856-1.385c-4.041,0-7.472,2.605-8.711,6.226
					c-0.74-0.409-1.589-0.643-2.494-0.643c-2.839,0-5.141,2.291-5.163,5.125h60.743C33.47,54.197,31.167,51.906,28.328,51.906z"/>
				<path id="XMLID_88_" style="fill:#FEFEF4;" d="M172.738,67.447c0-2.553-2.07-4.623-4.623-4.623c-1.2,0-2.29,0.461-3.111,1.21
					c-1.388-3.747-4.993-6.419-9.223-6.419c-4.103,0-7.617,2.514-9.091,6.085c-0.76-0.549-1.691-0.876-2.701-0.876
					c-2.554,0-4.624,2.07-4.624,4.623c0,0.028,0.004,0.054,0.004,0.082h33.363C172.735,67.501,172.738,67.475,172.738,67.447z"/>
				<path id="XMLID_87_" style="fill:#FEFEF4;" d="M233.395,45.885c0-2.704-2.192-4.896-4.896-4.896
					c-0.804,0-1.562,0.198-2.231,0.542c-1.811-3.818-5.7-6.458-10.207-6.458c-4.043,0-7.589,2.127-9.583,5.322
					c-0.758-0.313-1.589-0.486-2.46-0.486c-3.497,0-6.341,2.779-6.452,6.248h35.814C233.386,46.065,233.395,45.976,233.395,45.885z"
					/>
				<path id="XMLID_86_" style="fill:#FEFEF4;" d="M50.417,20.077c-0.639,0-1.247,0.126-1.806,0.348
					c-1.596-2.855-4.647-4.786-8.15-4.786c-3.619,0-6.754,2.061-8.303,5.072c-0.711-0.402-1.531-0.635-2.406-0.635
					c-2.556,0-4.651,1.959-4.874,4.457h30.412C55.068,22.036,52.973,20.077,50.417,20.077z"/>
				<path id="XMLID_85_" style="fill:#FEFEF4;" d="M143.013,35.282c-1.237,0-2.403,0.306-3.428,0.843
					c-1.746-3.979-5.718-6.76-10.342-6.76c-1.311,0-2.568,0.226-3.738,0.636c-2.03-4.595-6.625-7.803-11.97-7.803
					c-5.91,0-10.902,3.919-12.525,9.299c-1.857-1.34-4.135-2.132-6.6-2.132c-4.795,0-8.89,2.991-10.527,7.208
					c-0.626-0.291-1.321-0.457-2.056-0.457c-2.57,0-4.674,1.982-4.876,4.5h73.165C149.222,37.534,146.382,35.282,143.013,35.282z"/>
			</g>
		</g>
	</g>
</g>
<g id="XMLID_117_">
</g>
<g id="XMLID_118_">
</g>
<g id="XMLID_119_">
</g>
<g id="XMLID_120_">
</g>
<g id="XMLID_121_">
</g>
<g id="XMLID_122_">
</g>
<g id="XMLID_123_">
</g>
<g id="XMLID_124_">
</g>
<g id="XMLID_125_">
</g>
<g id="XMLID_126_">
</g>
<g id="XMLID_127_">
</g>
<g id="XMLID_128_">
</g>
<g id="XMLID_129_">
</g>
<g id="XMLID_130_">
</g>
<g id="XMLID_131_">
</g>
</svg>
