<?xml version="1.0" encoding="iso-8859-1"?>
<!-- Generator: Adobe Illustrator 19.0.0, SVG Export Plug-In . SVG Version: 6.00 Build 0)  -->
<svg version="1.1" xmlns="http://www.w3.org/2000/svg" xmlns:xlink="http://www.w3.org/1999/xlink" x="0px" y="0px"
	 viewBox="0 0 40 40" style="enable-background:new 0 0 40 40;" xml:space="preserve">
<g id="Background">
	<g id="XMLID_1_">
		<path id="XMLID_37_" style="fill:#D7D6D3;" d="M5,39.5c-2.481,0-4.5-2.019-4.5-4.5V5c0-2.481,2.019-4.5,4.5-4.5h30
			c2.481,0,4.5,2.019,4.5,4.5v30c0,2.481-2.019,4.5-4.5,4.5H5z"/>
		<path id="XMLID_33_" style="fill:#808080;" d="M35,1c2.206,0,4,1.794,4,4v30c0,2.206-1.794,4-4,4H5c-2.206,0-4-1.794-4-4V5
			c0-2.206,1.794-4,4-4H35 M35,0H5C2.239,0,0,2.239,0,5v30c0,2.761,2.239,5,5,5h30c2.761,0,5-2.239,5-5V5C40,2.239,37.761,0,35,0
			L35,0z"/>
	</g>
</g>
<g id="Layer_1">
	<g id="XMLID_39_">
		<path id="XMLID_26_" style="fill-rule:evenodd;clip-rule:evenodd;fill:#00BDD6;" d="M35,15v18.399c0,0.441-0.18,0.842-0.47,1.132
			C34.24,34.82,33.84,35,33.398,35H6.602c-0.441,0-0.842-0.18-1.132-0.47C5.18,34.24,5,33.84,5,33.398V15H35z"/>
		<path id="XMLID_25_" style="fill-rule:evenodd;clip-rule:evenodd;fill:#F16522;" d="M5.625,8.125c14.065,0,14.684,0,28.75,0
			l0.625,0v0.759v7.592H5V8.884V8.125L5.625,8.125z"/>
		<path id="XMLID_36_" style="display:none;fill-rule:evenodd;clip-rule:evenodd;fill:#F9FBE7;" d="M31.445,12.98
			c0.222-0.005,0.366-0.019,0.432-0.044c0.082-0.031,0.146-0.084,0.193-0.159c0.046-0.075,0.07-0.169,0.07-0.282
			c0-0.127-0.031-0.228-0.092-0.306c-0.061-0.078-0.147-0.127-0.259-0.148c-0.044-0.006-0.158-0.01-0.343-0.012v-0.636h0.065
			c0.364,0,0.627,0.034,0.792,0.101c0.165,0.067,0.297,0.187,0.396,0.359c0.099,0.173,0.148,0.37,0.148,0.592
			c0,0.282-0.075,0.515-0.225,0.699c-0.15,0.183-0.375,0.299-0.673,0.346c0.149,0.096,0.272,0.201,0.368,0.316
			c0.097,0.115,0.227,0.317,0.391,0.61l0.416,0.733h-0.822l-0.497-0.818c-0.175-0.289-0.294-0.471-0.36-0.549V12.98z M30.751,12.982
			h0.508c0.067,0,0.129-0.001,0.186-0.002v0.803l-0.002-0.003c-0.065-0.076-0.134-0.128-0.207-0.156
			c-0.073-0.028-0.188-0.042-0.346-0.042h-0.139v1.568h-0.688v-3.756h1.382v0.636c-0.048,0-0.101-0.001-0.158-0.001h-0.536V12.982
			L30.751,12.982z M25.042,15.147v-0.631c0.196-0.002,0.322-0.009,0.38-0.022c0.102-0.02,0.185-0.071,0.25-0.15
			c0.064-0.08,0.097-0.186,0.097-0.319c0-0.113-0.025-0.208-0.075-0.287c-0.05-0.079-0.121-0.136-0.215-0.172
			c-0.075-0.029-0.221-0.046-0.437-0.051v-0.629c0.11-0.002,0.184-0.006,0.223-0.011c0.117-0.015,0.21-0.06,0.277-0.134
			c0.067-0.074,0.101-0.172,0.101-0.294c0-0.116-0.029-0.211-0.086-0.283c-0.059-0.073-0.145-0.116-0.259-0.131
			c-0.04-0.005-0.125-0.009-0.255-0.011v-0.627c0.242,0.002,0.426,0.014,0.549,0.037c0.132,0.024,0.25,0.076,0.355,0.155
			c0.105,0.079,0.191,0.183,0.261,0.314c0.07,0.13,0.105,0.277,0.105,0.439c0,0.176-0.043,0.338-0.128,0.484
			c-0.086,0.147-0.203,0.257-0.349,0.331c0.207,0.066,0.367,0.18,0.478,0.34c0.112,0.161,0.167,0.35,0.167,0.567
			c0,0.171-0.036,0.337-0.108,0.498c-0.072,0.161-0.17,0.29-0.295,0.386c-0.124,0.096-0.278,0.156-0.461,0.178
			C25.525,15.134,25.334,15.142,25.042,15.147L25.042,15.147z M26.975,15.15v-3.756h2.523v0.636h-1.836v0.832h1.708v0.632h-1.708
			v1.022h1.901v0.633H26.975z M25.042,11.394v0.627c-0.089-0.001-0.2-0.002-0.332-0.002h-0.395v0.868h0.45
			c0.109,0,0.201-0.001,0.276-0.002v0.629c-0.053-0.001-0.11-0.002-0.172-0.002h-0.555v1.004h0.635c0.032,0,0.062,0,0.091,0v0.631
			c-0.078,0.001-0.163,0.002-0.256,0.003h-1.158v-3.756h1.36L25.042,11.394L25.042,11.394z M8.291,15.147V14.51
			c0.085-0.006,0.152-0.015,0.201-0.03c0.111-0.031,0.204-0.082,0.277-0.156c0.074-0.073,0.133-0.195,0.18-0.363
			c0.046-0.168,0.07-0.398,0.07-0.688c0-0.29-0.024-0.512-0.07-0.668c-0.047-0.156-0.112-0.277-0.195-0.364
			c-0.084-0.087-0.19-0.146-0.318-0.177c-0.036-0.009-0.084-0.016-0.145-0.022v-0.647c0.206,0.007,0.369,0.03,0.488,0.069
			c0.2,0.065,0.371,0.18,0.513,0.346c0.143,0.165,0.251,0.368,0.326,0.608c0.074,0.24,0.111,0.536,0.111,0.888
			c0,0.309-0.035,0.575-0.105,0.799C9.539,14.38,9.418,14.601,9.26,14.77c-0.119,0.129-0.28,0.228-0.483,0.3
			C8.651,15.114,8.489,15.14,8.291,15.147L8.291,15.147z M19.741,15.15v-3.756h1.028l0.617,2.562l0.61-2.562h1.031v3.756h-0.638
			v-2.957l-0.676,2.957h-0.662l-0.673-2.957v2.957H19.741L19.741,15.15z M16.664,15.15v-3.756h2.523v0.636h-1.836v0.832h1.708v0.632
			h-1.708v1.022h1.901v0.633H16.664L16.664,15.15z M15.492,13.769l0.666,0.233c-0.102,0.41-0.272,0.714-0.509,0.914
			c-0.237,0.198-0.539,0.298-0.904,0.298c-0.452,0-0.823-0.171-1.114-0.511c-0.291-0.341-0.437-0.807-0.437-1.397
			c0-0.625,0.147-1.111,0.439-1.457c0.292-0.345,0.677-0.519,1.153-0.519c0.416,0,0.754,0.136,1.014,0.407
			c0.155,0.16,0.271,0.391,0.349,0.692l-0.681,0.179c-0.04-0.195-0.124-0.349-0.252-0.462c-0.128-0.113-0.283-0.169-0.465-0.169
			c-0.252,0-0.457,0.1-0.614,0.3c-0.157,0.199-0.235,0.523-0.235,0.971c0,0.475,0.077,0.813,0.232,1.014
			c0.155,0.202,0.356,0.303,0.603,0.303c0.183,0,0.34-0.064,0.471-0.192C15.34,14.245,15.434,14.043,15.492,13.769L15.492,13.769z
			 M10.228,15.15v-3.756h2.523v0.636h-1.836v0.832h1.708v0.632h-1.708v1.022h1.901v0.633H10.228z M8.291,11.396v0.647
			c-0.103-0.009-0.243-0.014-0.419-0.014H7.564v2.487h0.513c0.081,0,0.153-0.002,0.215-0.006v0.637
			c-0.039,0.001-0.08,0.002-0.122,0.002H6.877v-3.756h1.256C8.188,11.394,8.241,11.395,8.291,11.396z"/>
		<path id="XMLID_12_" style="fill-rule:evenodd;clip-rule:evenodd;fill:#FFFFFF;" d="M19.226,29.387v1.351h-7.659
			c-0.011-0.338,0.043-0.663,0.165-0.975c0.194-0.517,0.507-1.023,0.936-1.524c0.432-0.498,1.052-1.076,1.861-1.732
			c1.26-1.02,2.112-1.827,2.555-2.424c0.442-0.594,0.664-1.159,0.664-1.689c0-0.557-0.202-1.026-0.604-1.409
			c-0.405-0.381-0.931-0.573-1.578-0.573c-0.685,0-1.233,0.202-1.643,0.61c-0.413,0.405-0.621,0.967-0.626,1.684l-1.462-0.146
			c0.1-1.079,0.478-1.899,1.13-2.464c0.653-0.565,1.532-0.847,2.633-0.847c1.112,0,1.991,0.306,2.639,0.914
			c0.65,0.61,0.974,1.364,0.974,2.264c0,0.458-0.094,0.908-0.286,1.351c-0.189,0.442-0.504,0.908-0.944,1.396
			c-0.44,0.49-1.171,1.161-2.193,2.014c-0.853,0.709-1.4,1.188-1.643,1.441c-0.243,0.25-0.442,0.503-0.602,0.759H19.226z"/>
		<path id="XMLID_11_" style="fill-rule:evenodd;clip-rule:evenodd;fill:#FFFFFF;" d="M20.751,27.554l1.495-0.125
			c0.111,0.721,0.367,1.26,0.769,1.623c0.405,0.363,0.89,0.545,1.46,0.545c0.685,0,1.265-0.256,1.737-0.766
			c0.475-0.512,0.712-1.191,0.712-2.034c0-0.804-0.227-1.436-0.683-1.901c-0.456-0.465-1.052-0.697-1.791-0.697
			c-0.459,0-0.871,0.104-1.241,0.31c-0.37,0.206-0.658,0.473-0.869,0.801l-1.335-0.171l1.122-5.889h5.763v1.345h-4.624l-0.626,3.081
			c0.696-0.481,1.427-0.721,2.191-0.721c1.012,0,1.864,0.347,2.56,1.041c0.696,0.694,1.044,1.586,1.044,2.675
			c0,1.039-0.308,1.936-0.917,2.691c-0.745,0.926-1.759,1.391-3.043,1.391c-1.055,0-1.915-0.291-2.582-0.876
			C21.225,29.292,20.845,28.517,20.751,27.554z"/>
		<path id="XMLID_10_" style="fill:#00B0FF;" d="M10,5.625C10,5.28,10.28,5,10.625,5s0.625,0.28,0.625,0.625v4.385
			c0,0.345-0.28,0.625-0.625,0.625S10,10.355,10,10.01V5.625z"/>
		<path id="XMLID_9_" style="fill:#00B0FF;" d="M16.25,5.625C16.25,5.28,16.53,5,16.875,5C17.22,5,17.5,5.28,17.5,5.625v4.385
			c0,0.345-0.28,0.625-0.625,0.625c-0.345,0-0.625-0.28-0.625-0.625V5.625z"/>
		<path id="XMLID_8_" style="fill:#00B0FF;" d="M22.5,5.625C22.5,5.28,22.78,5,23.125,5c0.345,0,0.625,0.28,0.625,0.625v4.385
			c0,0.345-0.28,0.625-0.625,0.625c-0.345,0-0.625-0.28-0.625-0.625V5.625z"/>
		<path id="XMLID_7_" style="fill:#00B0FF;" d="M28.75,5.625C28.75,5.28,29.03,5,29.375,5S30,5.28,30,5.625v4.385
			c0,0.345-0.28,0.625-0.625,0.625s-0.625-0.28-0.625-0.625V5.625z"/>
	</g>
</g>
</svg>
